<svg width="646" height="539" viewBox="0 0 646 539" fill="none" xmlns="http://www.w3.org/2000/svg">
<path d="M646 50C646 22.3858 623.614 0 596 0H114C86.3858 0 64 22.3858 64 50V539H596C623.614 539 646 516.614 646 489V50Z" fill="#F9F9FF"/>
<g filter="url(#filter0_d_3_426)">
<rect x="19" y="98" width="524" height="372" rx="4.91124" fill="white"/>
</g>
<path d="M82.9972 196.187C85.2238 196.187 86.8591 194.856 86.8537 193.044C86.8591 191.665 86.0228 190.674 84.5739 190.45V190.365C85.7138 190.072 86.4542 189.177 86.4489 187.952C86.4542 186.349 85.1385 184.98 83.0398 184.98C81.037 184.98 79.4283 186.189 79.375 187.963H80.9677C81.005 186.961 81.9478 186.354 83.0185 186.354C84.1318 186.354 84.8616 187.031 84.8562 188.037C84.8616 189.092 84.0146 189.785 82.8054 189.785H81.8839V191.127H82.8054C84.3182 191.127 85.1918 191.894 85.1918 192.991C85.1918 194.051 84.2703 194.77 82.9866 194.77C81.804 194.77 80.8825 194.163 80.8186 193.194H79.146C79.2152 194.973 80.7919 196.187 82.9972 196.187ZM92.6652 196.219C95.1847 196.219 96.6602 194.163 96.6602 190.589C96.6602 187.041 95.1634 184.98 92.6652 184.98C90.1616 184.98 88.6701 187.036 88.6648 190.589C88.6648 194.158 90.1403 196.214 92.6652 196.219ZM92.6652 194.797C91.1897 194.797 90.3001 193.316 90.3001 190.589C90.3054 187.872 91.195 186.375 92.6652 186.375C94.13 186.375 95.0249 187.872 95.0249 190.589C95.0249 193.316 94.1353 194.797 92.6652 194.797ZM98.5712 196.038H100.164V193.135L100.958 192.341L103.738 196.038H105.693L102.156 191.367L105.469 187.856H103.562L100.302 191.319H100.164V185.129H98.5712V196.038Z" fill="#A5ADC0"/>
<path d="M79.4336 252.038H86.614V250.627H81.7028V250.547L83.8708 248.277C85.8683 246.259 86.4383 245.294 86.4383 244.075C86.4383 242.322 85.0107 240.98 82.9546 240.98C80.9145 240.98 79.423 242.301 79.423 244.293H80.9944C80.989 243.121 81.7454 242.354 82.9226 242.354C84.0306 242.354 84.8722 243.036 84.8722 244.123C84.8722 245.087 84.2969 245.779 83.125 247.02L79.4336 250.845V252.038ZM92.4308 252.219C94.9503 252.219 96.4258 250.163 96.4258 246.589C96.4258 243.041 94.929 240.98 92.4308 240.98C89.9272 240.98 88.4358 243.036 88.4304 246.589C88.4304 250.158 89.9059 252.214 92.4308 252.219ZM92.4308 250.797C90.9553 250.797 90.0657 249.316 90.0657 246.589C90.0711 243.872 90.9606 242.375 92.4308 242.375C93.8956 242.375 94.7905 243.872 94.7905 246.589C94.7905 249.316 93.901 250.797 92.4308 250.797ZM98.3368 252.038H99.9295V249.135L100.723 248.341L103.504 252.038H105.459L101.922 247.367L105.235 243.856H103.328L100.068 247.319H99.9295V241.129H98.3368V252.038Z" fill="#A5ADC0"/>
<path d="M84.6272 297.129H83.0238L80.3019 298.908V300.485L82.912 298.78H82.9759V308.038H84.6272V297.129ZM91.3761 308.219C93.8956 308.219 95.3711 306.163 95.3711 302.589C95.3711 299.041 93.8743 296.98 91.3761 296.98C88.8726 296.98 87.3811 299.036 87.3758 302.589C87.3758 306.158 88.8513 308.214 91.3761 308.219ZM91.3761 306.797C89.9006 306.797 89.0111 305.316 89.0111 302.589C89.0164 299.872 89.9059 298.375 91.3761 298.375C92.841 298.375 93.7358 299.872 93.7358 302.589C93.7358 305.316 92.8463 306.797 91.3761 306.797ZM97.2821 308.038H98.8748V305.135L99.6685 304.341L102.449 308.038H104.404L100.867 303.367L104.18 299.856H102.273L99.0133 303.319H98.8748V297.129H97.2821V308.038Z" fill="#A5ADC0"/>
<path d="M87.8245 364.187C90.0191 364.187 91.5852 362.637 91.5799 360.512C91.5852 358.402 90.115 356.868 88.1282 356.868C87.3185 356.868 86.5674 357.177 86.1413 357.593H86.0774L86.4236 354.541H91.0525V353.129H85.0546L84.4421 358.626L85.9495 358.85C86.3597 358.482 87.0948 358.232 87.7553 358.232C89.0497 358.243 89.9872 359.212 89.9872 360.544C89.9872 361.854 89.0763 362.802 87.8245 362.802C86.7698 362.802 85.9335 362.131 85.8483 361.194H84.2503C84.3142 362.93 85.8217 364.187 87.8245 364.187ZM93.5467 364.038H95.1394V361.135L95.9331 360.341L98.7136 364.038H100.669L97.1316 359.367L100.445 355.856H98.5379L95.2779 359.319H95.1394V353.129H93.5467V364.038Z" fill="#A5ADC0"/>
<path d="M125.466 391.129V402.038H127.032V394.139H127.133L130.351 402.022H131.65L134.868 394.144H134.969V402.038H136.535V391.129H134.537L131.064 399.609H130.937L127.464 391.129H125.466ZM142.247 402.203C144.553 402.203 146.06 400.515 146.06 397.984C146.06 395.438 144.553 393.75 142.247 393.75C139.94 393.75 138.433 395.438 138.433 397.984C138.433 400.515 139.94 402.203 142.247 402.203ZM142.252 400.866C140.744 400.866 140.041 399.551 140.041 397.979C140.041 396.413 140.744 395.081 142.252 395.081C143.749 395.081 144.452 396.413 144.452 397.979C144.452 399.551 143.749 400.866 142.252 400.866ZM149.431 397.18C149.431 395.875 150.23 395.129 151.338 395.129C152.419 395.129 153.074 395.838 153.074 397.026V402.038H154.667V396.834C154.667 394.81 153.554 393.75 151.881 393.75C150.651 393.75 149.846 394.32 149.468 395.188H149.367V393.856H147.838V402.038H149.431V397.18Z" fill="#A5ADC0"/>
<path d="M193.97 392.546H197.368V402.038H199.009V392.546H202.412V391.129H193.97V392.546ZM208.22 398.645C208.225 400.035 207.192 400.696 206.297 400.696C205.311 400.696 204.63 399.982 204.63 398.869V393.856H203.037V399.06C203.037 401.09 204.15 402.145 205.722 402.145C206.952 402.145 207.788 401.495 208.167 400.621H208.252V402.038H209.818V393.856H208.22V398.645ZM215.484 402.203C217.269 402.203 218.531 401.324 218.893 399.993L217.386 399.721C217.098 400.493 216.406 400.888 215.5 400.888C214.136 400.888 213.22 400.003 213.178 398.427H218.994V397.862C218.994 394.906 217.226 393.75 215.372 393.75C213.092 393.75 211.59 395.486 211.59 398C211.59 400.541 213.071 402.203 215.484 402.203ZM213.183 397.233C213.247 396.072 214.089 395.065 215.383 395.065C216.619 395.065 217.428 395.982 217.434 397.233H213.183Z" fill="#A5ADC0"/>
<path d="M260.809 402.038H262.471L264.767 393.867H264.852L267.148 402.038H268.805L271.835 391.129H270.099L267.979 399.582H267.878L265.667 391.129H263.952L261.741 399.577H261.64L259.515 391.129H257.784L260.809 402.038ZM275.929 402.203C277.713 402.203 278.976 401.324 279.338 399.993L277.831 399.721C277.543 400.493 276.85 400.888 275.945 400.888C274.581 400.888 273.665 400.003 273.623 398.427H279.439V397.862C279.439 394.906 277.671 393.75 275.817 393.75C273.537 393.75 272.035 395.486 272.035 398C272.035 400.541 273.516 402.203 275.929 402.203ZM273.628 397.233C273.692 396.072 274.533 395.065 275.828 395.065C277.064 395.065 277.873 395.982 277.879 397.233H273.628ZM284.269 402.198C285.761 402.198 286.347 401.287 286.634 400.765H286.767V402.038H288.323V391.129H286.73V395.183H286.634C286.347 394.677 285.803 393.75 284.28 393.75C282.304 393.75 280.85 395.31 280.85 397.963C280.85 400.611 282.282 402.198 284.269 402.198ZM284.621 400.84C283.199 400.84 282.458 399.588 282.458 397.947C282.458 396.323 283.183 395.103 284.621 395.103C286.011 395.103 286.757 396.237 286.757 397.947C286.757 399.668 285.995 400.84 284.621 400.84Z" fill="#A5ADC0"/>
<path d="M328.803 392.546H332.202V402.038H333.842V392.546H337.246V391.129H328.803V392.546ZM340.576 397.18C340.576 395.875 341.402 395.129 342.537 395.129C343.634 395.129 344.289 395.827 344.289 397.026V402.038H345.882V396.834C345.882 394.794 344.763 393.75 343.08 393.75C341.807 393.75 341.04 394.304 340.656 395.188H340.555V391.129H338.984V402.038H340.576V397.18ZM353.19 398.645C353.195 400.035 352.162 400.696 351.267 400.696C350.282 400.696 349.6 399.982 349.6 398.869V393.856H348.007V399.06C348.007 401.09 349.12 402.145 350.692 402.145C351.922 402.145 352.759 401.495 353.137 400.621H353.222V402.038H354.788V393.856H353.19V398.645Z" fill="#A5ADC0"/>
<path d="M397.609 402.038H399.255V397.281H403.889V395.87H399.255V392.546H404.374V391.129H397.609V402.038ZM406.168 402.038H407.761V397.042C407.761 395.971 408.586 395.199 409.715 395.199C410.046 395.199 410.419 395.257 410.546 395.294V393.771C410.387 393.75 410.072 393.734 409.87 393.734C408.911 393.734 408.091 394.277 407.792 395.156H407.707V393.856H406.168V402.038ZM411.925 402.038H413.517V393.856H411.925V402.038ZM412.729 392.594C413.278 392.594 413.736 392.168 413.736 391.646C413.736 391.124 413.278 390.692 412.729 390.692C412.175 390.692 411.722 391.124 411.722 391.646C411.722 392.168 412.175 392.594 412.729 392.594Z" fill="#1F3BB2"/>
<path d="M459.261 393.995H460.849C460.801 392.248 459.256 390.98 457.04 390.98C454.851 390.98 453.173 392.232 453.173 394.112C453.173 395.63 454.259 396.52 456.012 396.994L457.301 397.345C458.468 397.654 459.368 398.038 459.368 399.007C459.368 400.073 458.35 400.776 456.949 400.776C455.682 400.776 454.627 400.211 454.531 399.023H452.88C452.986 400.999 454.515 402.219 456.96 402.219C459.522 402.219 460.998 400.872 460.998 399.023C460.998 397.058 459.245 396.296 457.86 395.955L456.795 395.678C455.943 395.46 454.808 395.06 454.813 394.016C454.813 393.089 455.66 392.402 457.003 392.402C458.254 392.402 459.144 392.988 459.261 393.995ZM465.218 402.219C466.571 402.219 467.333 401.532 467.636 400.919H467.7V402.038H469.255V396.605C469.255 394.224 467.38 393.75 466.081 393.75C464.6 393.75 463.236 394.346 462.704 395.838L464.2 396.179C464.435 395.598 465.031 395.039 466.102 395.039C467.13 395.039 467.657 395.577 467.657 396.504V396.541C467.657 397.122 467.061 397.111 465.591 397.281C464.041 397.462 462.453 397.867 462.453 399.726C462.453 401.335 463.662 402.219 465.218 402.219ZM465.564 400.941C464.664 400.941 464.014 400.536 464.014 399.748C464.014 398.895 464.77 398.592 465.692 398.469C466.209 398.4 467.434 398.261 467.663 398.032V399.087C467.663 400.057 466.89 400.941 465.564 400.941ZM475.196 393.856H473.518V391.896H471.925V393.856H470.727V395.135H471.925V399.966C471.92 401.452 473.055 402.171 474.312 402.145C474.818 402.139 475.159 402.043 475.345 401.974L475.058 400.658C474.951 400.68 474.754 400.728 474.498 400.728C473.982 400.728 473.518 400.557 473.518 399.636V395.135H475.196V393.856Z" fill="#A5ADC0"/>
<line x1="126" y1="195.538" x2="479" y2="195.538" stroke="#EFF1FA"/>
<line x1="126" y1="251.538" x2="479" y2="251.538" stroke="#EFF1FA"/>
<line x1="126" y1="307.538" x2="479" y2="307.538" stroke="#EFF1FA"/>
<line x1="126" y1="363.538" x2="479" y2="363.538" stroke="#EFF1FA"/>
<path d="M126 280H156V363H126V280Z" fill="#C7E7DB"/>
<path d="M191 252H221V363H191V252Z" fill="#52BD95"/>
<path d="M256 274H286V363H256V274Z" fill="#C7E7DB"/>
<path d="M321 307H351V363H321V307Z" fill="#52BD95"/>
<path d="M386 228H416V363H386V228Z" fill="#C7E7DB"/>
<path d="M451 195H481V363H451V195Z" fill="#52BD95"/>
<g filter="url(#filter1_d_3_426)">
<rect x="106" y="49" width="352" height="97" rx="4.91124" fill="white"/>
</g>
<path d="M138.122 72.9091H136.46L141.267 86H142.903L147.71 72.9091H146.048L142.162 83.929H142.009L138.122 72.9091ZM149.545 86H151.053V76.1818H149.545V86ZM150.312 74.5455C150.9 74.5455 151.386 74.0852 151.386 73.5227C151.386 72.9602 150.9 72.5 150.312 72.5C149.724 72.5 149.238 72.9602 149.238 73.5227C149.238 74.0852 149.724 74.5455 150.312 74.5455ZM160.771 78.3807C160.298 76.9872 159.237 76.054 157.294 76.054C155.222 76.054 153.688 77.2301 153.688 78.892C153.688 80.2472 154.494 81.1548 156.296 81.5767L157.933 81.9602C158.923 82.1903 159.39 82.6634 159.39 83.3409C159.39 84.1847 158.495 84.875 157.089 84.875C155.855 84.875 155.082 84.3445 154.813 83.2898L153.382 83.6477C153.733 85.3161 155.107 86.2045 157.115 86.2045C159.396 86.2045 160.95 84.9581 160.95 83.2642C160.95 81.8963 160.093 81.0334 158.342 80.6051L156.884 80.2472C155.721 79.9595 155.197 79.5696 155.197 78.8153C155.197 77.9716 156.092 77.358 157.294 77.358C158.61 77.358 159.154 78.0866 159.416 78.7642L160.771 78.3807ZM163.221 86H164.729V76.1818H163.221V86ZM163.988 74.5455C164.576 74.5455 165.061 74.0852 165.061 73.5227C165.061 72.9602 164.576 72.5 163.988 72.5C163.4 72.5 162.914 72.9602 162.914 73.5227C162.914 74.0852 163.4 74.5455 163.988 74.5455ZM171.762 76.1818H169.665V73.8295H168.157V76.1818H166.674V77.4602H168.157V83.5966C168.157 85.3097 169.537 86.1278 170.816 86.1278C171.378 86.1278 171.736 86.0256 171.941 85.9489L171.634 84.5938C171.506 84.6193 171.302 84.6705 170.969 84.6705C170.305 84.6705 169.665 84.4659 169.665 83.1875V77.4602H171.762V76.1818ZM177.914 86.2045C180.573 86.2045 182.363 84.1847 182.363 81.142C182.363 78.0739 180.573 76.054 177.914 76.054C175.255 76.054 173.465 78.0739 173.465 81.142C173.465 84.1847 175.255 86.2045 177.914 86.2045ZM177.914 84.8494C175.894 84.8494 174.974 83.1108 174.974 81.142C174.974 79.1733 175.894 77.4091 177.914 77.4091C179.934 77.4091 180.855 79.1733 180.855 81.142C180.855 83.1108 179.934 84.8494 177.914 84.8494ZM184.666 86H186.174V79.7869C186.174 78.4574 187.223 77.4858 188.654 77.4858C189.057 77.4858 189.473 77.5625 189.575 77.5881V76.054C189.402 76.0412 189.006 76.0284 188.782 76.0284C187.606 76.0284 186.583 76.6932 186.225 77.6648H186.123V76.1818H184.666V86ZM198.318 78.3807C197.845 76.9872 196.784 76.054 194.84 76.054C192.769 76.054 191.235 77.2301 191.235 78.892C191.235 80.2472 192.041 81.1548 193.843 81.5767L195.48 81.9602C196.47 82.1903 196.937 82.6634 196.937 83.3409C196.937 84.1847 196.042 84.875 194.636 84.875C193.402 84.875 192.629 84.3445 192.36 83.2898L190.928 83.6477C191.28 85.3161 192.654 86.2045 194.661 86.2045C196.943 86.2045 198.497 84.9581 198.497 83.2642C198.497 81.8963 197.64 81.0334 195.889 80.6051L194.431 80.2472C193.268 79.9595 192.744 79.5696 192.744 78.8153C192.744 77.9716 193.639 77.358 194.84 77.358C196.157 77.358 196.7 78.0866 196.963 78.7642L198.318 78.3807Z" fill="#666666"/>
<path d="M144.114 120.249C148.163 120.249 150.915 117.612 150.906 113.936C150.915 110.456 148.482 107.953 145.206 107.953C143.608 107.953 142.232 108.619 141.593 109.515H141.487L141.957 104.961H149.903V101.818H138.788L137.926 111.406L141.344 112.019C141.904 111.264 142.987 110.794 144.061 110.794C145.89 110.803 147.204 112.125 147.204 114.034C147.204 115.925 145.917 117.23 144.114 117.23C142.587 117.23 141.353 116.271 141.265 114.86H137.536C137.607 118.002 140.35 120.249 144.114 120.249ZM160.565 120.249C164.613 120.266 167.374 117.612 167.365 113.91C167.374 110.501 164.995 108.042 161.772 108.042C159.775 108.042 158.008 109 157.191 110.607H157.067C157.085 107.065 158.328 104.863 160.698 104.863C162.092 104.863 163.095 105.627 163.388 106.896H167.179C166.815 103.904 164.329 101.57 160.698 101.57C156.206 101.57 153.321 105.21 153.303 111.317C153.294 117.976 156.827 120.231 160.565 120.249ZM160.547 117.23C158.772 117.23 157.458 115.801 157.458 114.025C157.467 112.259 158.807 110.82 160.574 110.82C162.349 110.82 163.646 112.214 163.637 114.016C163.646 115.836 162.323 117.23 160.547 117.23ZM170.81 120H174.778L182.325 105.005V101.818H169.567V104.961H178.347V105.085L170.81 120ZM185.98 117.514H182.855L182.811 118.509C182.704 120.923 182.012 123.4 181.754 124.439H184.204C184.631 123.365 185.643 120.843 185.882 118.491L185.98 117.514ZM195.561 120.249C199.645 120.249 202.566 118.002 202.557 114.895C202.566 112.631 201.128 111.016 198.456 110.678V110.536C200.489 110.172 201.891 108.734 201.882 106.692C201.891 103.825 199.379 101.57 195.615 101.57C191.886 101.57 189.081 103.754 189.027 106.896H192.712C192.756 105.511 194.026 104.615 195.597 104.615C197.151 104.615 198.189 105.556 198.18 106.923C198.189 108.352 196.973 109.32 195.224 109.32H193.528V112.143H195.224C197.284 112.143 198.571 113.173 198.562 114.638C198.571 116.085 197.328 117.079 195.57 117.079C193.875 117.079 192.605 116.191 192.534 114.86H188.663C188.725 118.038 191.566 120.249 195.561 120.249ZM205.045 116.804H213.772V120H217.448V116.804H219.703V113.723H217.448V101.818H212.636L205.045 113.777V116.804ZM213.843 113.723H208.916V113.581L213.701 106.009H213.843V113.723ZM221.989 116.804H230.715V120H234.391V116.804H236.646V113.723H234.391V101.818H229.579L221.989 113.777V116.804ZM230.786 113.723H225.859V113.581L230.644 106.009H230.786V113.723Z" fill="#262626"/>
<path d="M340.081 120H341.743L347.572 108.392V106.909H339.186V108.315H345.936V108.418L340.081 120ZM349.98 118.21H348.344L348.267 118.926C348.082 120.658 347.718 122.384 347.551 123.196H348.702C349.009 122.327 349.661 120.358 349.878 118.901L349.98 118.21ZM352.75 120H361.008V118.594H354.923V118.491L357.863 115.347C360.113 112.937 360.778 111.812 360.778 110.361C360.778 108.341 359.142 106.73 356.841 106.73C354.546 106.73 352.801 108.29 352.801 110.591H354.309C354.309 109.102 355.275 108.111 356.789 108.111C358.208 108.111 359.295 108.98 359.295 110.361C359.295 111.569 358.586 112.464 357.071 114.119L352.75 118.849V120ZM363.648 120H371.907V118.594H365.821V118.491L368.762 115.347C371.012 112.937 371.676 111.812 371.676 110.361C371.676 108.341 370.04 106.73 367.739 106.73C365.444 106.73 363.699 108.29 363.699 110.591H365.208C365.208 109.102 366.173 108.111 367.688 108.111C369.107 108.111 370.194 108.98 370.194 110.361C370.194 111.569 369.484 112.464 367.969 114.119L363.648 118.849V120ZM378.74 120.179C381.354 120.179 383.176 118.651 383.189 116.523C383.176 114.867 382.07 113.461 380.657 113.199V113.122C381.885 112.803 382.69 111.601 382.703 110.207C382.69 108.213 381.015 106.73 378.74 106.73C376.439 106.73 374.764 108.213 374.777 110.207C374.764 111.601 375.569 112.803 376.822 113.122V113.199C375.384 113.461 374.278 114.867 374.291 116.523C374.278 118.651 376.1 120.179 378.74 120.179ZM378.74 118.773C376.944 118.773 375.838 117.852 375.85 116.446C375.838 114.969 377.059 113.915 378.74 113.915C380.395 113.915 381.616 114.969 381.629 116.446C381.616 117.852 380.51 118.773 378.74 118.773ZM378.74 112.56C377.308 112.56 376.298 111.665 376.311 110.31C376.298 108.98 377.27 108.111 378.74 108.111C380.184 108.111 381.156 108.98 381.169 110.31C381.156 111.665 380.146 112.56 378.74 112.56ZM401.312 106.909H399.752V117.213H399.624L392.465 106.909H390.931V120H392.516V109.722H392.644L399.778 120H401.312V106.909ZM408.396 120.205C410.39 120.205 411.847 119.207 412.308 117.724L410.85 117.315C410.467 118.338 409.578 118.849 408.396 118.849C406.625 118.849 405.404 117.705 405.334 115.602H412.461V114.963C412.461 111.307 410.288 110.054 408.242 110.054C405.583 110.054 403.819 112.151 403.819 115.168C403.819 118.185 405.558 120.205 408.396 120.205ZM405.334 114.298C405.436 112.771 406.516 111.409 408.242 111.409C409.879 111.409 410.927 112.636 410.927 114.298H405.334ZM416.98 120H418.463L420.611 112.457H420.764L422.912 120H424.395L427.386 110.182H425.801L423.679 117.673H423.577L421.506 110.182H419.895L417.798 117.699H417.696L415.574 110.182H413.989L416.98 120Z" fill="#52BD95"/>
<path d="M371.82 87H373.274L375.842 77.7273H375.933L378.501 87H379.956L383.138 75.3636H381.706L379.274 84.8409H379.161L376.683 75.3636H375.092L372.615 84.8409H372.501L370.07 75.3636H368.638L371.82 87ZM387.558 87.1818C389.331 87.1818 390.626 86.2955 391.036 84.9773L389.74 84.6136C389.399 85.5227 388.609 85.9773 387.558 85.9773C385.984 85.9773 384.899 84.9602 384.837 83.0909H391.172V82.5227C391.172 79.2727 389.24 78.1591 387.422 78.1591C385.058 78.1591 383.49 80.0227 383.49 82.7045C383.49 85.3864 385.036 87.1818 387.558 87.1818ZM384.837 81.9318C384.928 80.5739 385.888 79.3636 387.422 79.3636C388.876 79.3636 389.808 80.4545 389.808 81.9318H384.837ZM396.871 87.1818C398.643 87.1818 399.939 86.2955 400.348 84.9773L399.053 84.6136C398.712 85.5227 397.922 85.9773 396.871 85.9773C395.297 85.9773 394.212 84.9602 394.149 83.0909H400.484V82.5227C400.484 79.2727 398.553 78.1591 396.734 78.1591C394.371 78.1591 392.803 80.0227 392.803 82.7045C392.803 85.3864 394.348 87.1818 396.871 87.1818ZM394.149 81.9318C394.24 80.5739 395.2 79.3636 396.734 79.3636C398.189 79.3636 399.121 80.4545 399.121 81.9318H394.149ZM402.524 87H403.865V83.733L404.803 82.8636L408.07 87H409.774L405.814 82L409.501 78.2727H407.842L404.024 82.1591H403.865V75.3636H402.524V87Z" fill="#717171"/>
<path d="M416.94 78.2267L420 81.28L423.06 78.2267L424 79.1667L420 83.1667L416 79.1667L416.94 78.2267Z" fill="#111111"/>
<defs>
<filter id="filter0_d_3_426" x="0.992112" y="98" width="560.016" height="414.564" filterUnits="userSpaceOnUse" color-interpolation-filters="sRGB">
<feFlood flood-opacity="0" result="BackgroundImageFix"/>
<feColorMatrix in="SourceAlpha" type="matrix" values="0 0 0 0 0 0 0 0 0 0 0 0 0 0 0 0 0 0 127 0" result="hardAlpha"/>
<feMorphology radius="14.7337" operator="erode" in="SourceAlpha" result="effect1_dropShadow_3_426"/>
<feOffset dy="24.5562"/>
<feGaussianBlur stdDeviation="16.3708"/>
<feColorMatrix type="matrix" values="0 0 0 0 0.583333 0 0 0 0 0.583333 0 0 0 0 0.583333 0 0 0 0.25 0"/>
<feBlend mode="normal" in2="BackgroundImageFix" result="effect1_dropShadow_3_426"/>
<feBlend mode="normal" in="SourceGraphic" in2="effect1_dropShadow_3_426" result="shape"/>
</filter>
<filter id="filter1_d_3_426" x="87.9921" y="49" width="388.016" height="139.564" filterUnits="userSpaceOnUse" color-interpolation-filters="sRGB">
<feFlood flood-opacity="0" result="BackgroundImageFix"/>
<feColorMatrix in="SourceAlpha" type="matrix" values="0 0 0 0 0 0 0 0 0 0 0 0 0 0 0 0 0 0 127 0" result="hardAlpha"/>
<feMorphology radius="14.7337" operator="erode" in="SourceAlpha" result="effect1_dropShadow_3_426"/>
<feOffset dy="24.5562"/>
<feGaussianBlur stdDeviation="16.3708"/>
<feColorMatrix type="matrix" values="0 0 0 0 0.583333 0 0 0 0 0.583333 0 0 0 0 0.583333 0 0 0 0.25 0"/>
<feBlend mode="normal" in2="BackgroundImageFix" result="effect1_dropShadow_3_426"/>
<feBlend mode="normal" in="SourceGraphic" in2="effect1_dropShadow_3_426" result="shape"/>
</filter>
</defs>
</svg>
