<svg width="405" height="305" viewBox="0 0 405 305" fill="none" xmlns="http://www.w3.org/2000/svg">
<g filter="url(#filter0_d_2_1449)">
<rect x="19" width="367" height="262" rx="4.91124" fill="white"/>
</g>
<path d="M229.328 90.0645L229.868 85.0469H235.214V86.4824H231.249L230.976 88.8613C231.436 88.597 231.955 88.4648 232.534 88.4648C233.482 88.4648 234.218 88.7679 234.742 89.374C235.271 89.9801 235.535 90.7959 235.535 91.8213C235.535 92.833 235.243 93.6396 234.66 94.2412C234.077 94.8382 233.277 95.1367 232.261 95.1367C231.349 95.1367 230.593 94.8792 229.991 94.3643C229.394 93.8447 229.071 93.1611 229.021 92.3135H230.627C230.691 92.7965 230.864 93.168 231.146 93.4277C231.429 93.6829 231.798 93.8105 232.254 93.8105C232.764 93.8105 233.161 93.6283 233.443 93.2637C233.73 92.8991 233.874 92.4023 233.874 91.7734C233.874 91.1673 233.717 90.6888 233.402 90.3379C233.088 89.9824 232.655 89.8047 232.104 89.8047C231.803 89.8047 231.548 89.8457 231.338 89.9277C231.128 90.0052 230.9 90.1602 230.654 90.3926L229.328 90.0645ZM237.183 97.2422L236.287 96.709C236.551 96.2943 236.731 95.932 236.827 95.6221C236.927 95.3167 236.98 95.0046 236.984 94.6855V93.3936H238.481L238.475 94.5898C238.47 95.0729 238.347 95.556 238.105 96.0391C237.868 96.5267 237.561 96.9277 237.183 97.2422ZM240.361 90.0645L240.901 85.0469H246.247V86.4824H242.282L242.009 88.8613C242.469 88.597 242.989 88.4648 243.567 88.4648C244.515 88.4648 245.251 88.7679 245.775 89.374C246.304 89.9801 246.568 90.7959 246.568 91.8213C246.568 92.833 246.277 93.6396 245.693 94.2412C245.11 94.8382 244.31 95.1367 243.294 95.1367C242.382 95.1367 241.626 94.8792 241.024 94.3643C240.427 93.8447 240.104 93.1611 240.054 92.3135H241.66C241.724 92.7965 241.897 93.168 242.18 93.4277C242.462 93.6829 242.831 93.8105 243.287 93.8105C243.798 93.8105 244.194 93.6283 244.477 93.2637C244.764 92.8991 244.907 92.4023 244.907 91.7734C244.907 91.1673 244.75 90.6888 244.436 90.3379C244.121 89.9824 243.688 89.8047 243.137 89.8047C242.836 89.8047 242.581 89.8457 242.371 89.9277C242.161 90.0052 241.934 90.1602 241.688 90.3926L240.361 90.0645ZM253.042 84.999V86.373H252.837C251.907 86.3867 251.164 86.6419 250.608 87.1387C250.052 87.6354 249.722 88.3395 249.617 89.251C250.15 88.6904 250.832 88.4102 251.661 88.4102C252.541 88.4102 253.233 88.7201 253.739 89.3398C254.25 89.9596 254.505 90.7594 254.505 91.7393C254.505 92.751 254.206 93.5713 253.609 94.2002C253.017 94.8245 252.238 95.1367 251.271 95.1367C250.278 95.1367 249.471 94.7699 248.852 94.0361C248.236 93.3024 247.929 92.3408 247.929 91.1514V90.584C247.929 88.8385 248.353 87.4714 249.2 86.4824C250.052 85.4935 251.276 84.999 252.871 84.999H253.042ZM251.258 89.75C250.893 89.75 250.558 89.8525 250.253 90.0576C249.952 90.2627 249.731 90.5361 249.59 90.8779V91.3838C249.59 92.1221 249.745 92.71 250.055 93.1475C250.365 93.5804 250.766 93.7969 251.258 93.7969C251.75 93.7969 252.14 93.6123 252.427 93.2432C252.714 92.874 252.857 92.3887 252.857 91.7871C252.857 91.1855 252.712 90.6956 252.42 90.3174C252.128 89.9391 251.741 89.75 251.258 89.75ZM262.318 90.8096C262.318 92.2406 262.049 93.3206 261.512 94.0498C260.979 94.7744 260.165 95.1367 259.071 95.1367C257.996 95.1367 257.185 94.7835 256.638 94.0771C256.095 93.3662 255.817 92.3158 255.804 90.9258V89.2031C255.804 87.7721 256.07 86.6989 256.604 85.9834C257.141 85.2679 257.959 84.9102 259.058 84.9102C260.147 84.9102 260.958 85.2588 261.491 85.9561C262.029 86.6533 262.305 87.6969 262.318 89.0869V90.8096ZM260.657 88.9502C260.657 88.016 260.53 87.3324 260.274 86.8994C260.019 86.4619 259.614 86.2432 259.058 86.2432C258.515 86.2432 258.117 86.4505 257.861 86.8652C257.606 87.2754 257.472 87.918 257.458 88.793V91.0488C257.458 91.9785 257.588 92.6712 257.848 93.127C258.107 93.5827 258.515 93.8105 259.071 93.8105C259.604 93.8105 259.999 93.6009 260.254 93.1816C260.509 92.7578 260.644 92.097 260.657 91.1992V88.9502ZM268.642 92.4023C268.642 92.015 268.519 91.696 268.272 91.4453C268.026 91.1901 267.616 90.9622 267.042 90.7617C266.468 90.5566 266.021 90.3675 265.702 90.1943C264.64 89.6247 264.109 88.7816 264.109 87.665C264.109 86.9085 264.34 86.2865 264.8 85.7988C265.26 85.3112 265.884 85.0218 266.673 84.9307V83.4404H267.767V84.9443C268.56 85.0583 269.173 85.3955 269.605 85.9561C270.038 86.512 270.255 87.2367 270.255 88.1299H268.601C268.601 87.5557 268.471 87.1045 268.211 86.7764C267.956 86.4437 267.607 86.2773 267.165 86.2773C266.728 86.2773 266.386 86.3958 266.14 86.6328C265.894 86.8698 265.771 87.2093 265.771 87.6514C265.771 88.0479 265.891 88.3669 266.133 88.6084C266.379 88.8454 266.794 89.071 267.377 89.2852C267.96 89.4993 268.418 89.6976 268.751 89.8799C269.084 90.0622 269.364 90.2718 269.592 90.5088C269.82 90.7412 269.995 91.0101 270.118 91.3154C270.241 91.6208 270.303 91.9785 270.303 92.3887C270.303 93.1589 270.066 93.7832 269.592 94.2617C269.122 94.7402 268.466 95.0228 267.623 95.1094V96.4424H266.536V95.1162C265.634 95.016 264.939 94.6924 264.451 94.1455C263.968 93.5986 263.727 92.874 263.727 91.9717H265.388C265.388 92.5459 265.531 92.9902 265.818 93.3047C266.11 93.6191 266.52 93.7764 267.049 93.7764C267.568 93.7764 267.963 93.651 268.231 93.4004C268.505 93.1497 268.642 92.8171 268.642 92.4023Z" fill="#28445C"/>
<path d="M239.579 108H238.642V100.891H239.579V108ZM242.011 102.717L242.04 103.381C242.444 102.873 242.971 102.619 243.622 102.619C244.739 102.619 245.302 103.249 245.312 104.509V108H244.408V104.504C244.405 104.123 244.317 103.841 244.145 103.659C243.975 103.477 243.71 103.386 243.349 103.386C243.056 103.386 242.799 103.464 242.577 103.62C242.356 103.776 242.183 103.981 242.06 104.235V108H241.156V102.717H242.011ZM248.793 107.36C249.115 107.36 249.397 107.263 249.638 107.067C249.879 106.872 250.012 106.628 250.038 106.335H250.893C250.876 106.638 250.772 106.926 250.58 107.199C250.388 107.473 250.131 107.691 249.809 107.854C249.49 108.016 249.151 108.098 248.793 108.098C248.074 108.098 247.501 107.858 247.074 107.38C246.651 106.898 246.439 106.241 246.439 105.407V105.256C246.439 104.742 246.534 104.284 246.723 103.884C246.911 103.483 247.182 103.173 247.533 102.951C247.888 102.73 248.306 102.619 248.788 102.619C249.381 102.619 249.872 102.797 250.263 103.151C250.657 103.506 250.867 103.967 250.893 104.533H250.038C250.012 104.191 249.882 103.911 249.647 103.693C249.416 103.472 249.13 103.361 248.788 103.361C248.329 103.361 247.973 103.527 247.719 103.859C247.468 104.188 247.343 104.665 247.343 105.29V105.461C247.343 106.07 247.468 106.538 247.719 106.867C247.969 107.196 248.327 107.36 248.793 107.36ZM251.669 105.31C251.669 104.792 251.77 104.326 251.972 103.913C252.177 103.5 252.46 103.181 252.821 102.956C253.186 102.731 253.601 102.619 254.066 102.619C254.786 102.619 255.367 102.868 255.81 103.366C256.256 103.864 256.479 104.527 256.479 105.354V105.417C256.479 105.931 256.379 106.394 256.181 106.804C255.985 107.211 255.704 107.528 255.336 107.756C254.971 107.984 254.551 108.098 254.076 108.098C253.36 108.098 252.779 107.849 252.333 107.351C251.89 106.853 251.669 106.193 251.669 105.373V105.31ZM252.577 105.417C252.577 106.003 252.712 106.473 252.982 106.828C253.256 107.183 253.62 107.36 254.076 107.36C254.535 107.36 254.9 107.181 255.17 106.823C255.44 106.462 255.575 105.957 255.575 105.31C255.575 104.73 255.437 104.261 255.16 103.903C254.887 103.542 254.522 103.361 254.066 103.361C253.62 103.361 253.261 103.539 252.987 103.894C252.714 104.248 252.577 104.756 252.577 105.417ZM258.461 102.717L258.485 103.303C258.873 102.847 259.395 102.619 260.053 102.619C260.792 102.619 261.295 102.902 261.562 103.469C261.737 103.215 261.965 103.01 262.245 102.854C262.528 102.697 262.862 102.619 263.246 102.619C264.405 102.619 264.994 103.233 265.014 104.46V108H264.11V104.514C264.11 104.136 264.024 103.854 263.852 103.669C263.679 103.48 263.389 103.386 262.982 103.386C262.647 103.386 262.369 103.487 262.147 103.688C261.926 103.887 261.798 104.156 261.762 104.494V108H260.854V104.538C260.854 103.77 260.478 103.386 259.726 103.386C259.133 103.386 258.728 103.638 258.51 104.143V108H257.606V102.717H258.461ZM268.573 108.098C267.857 108.098 267.274 107.863 266.825 107.395C266.376 106.923 266.151 106.293 266.151 105.505V105.339C266.151 104.815 266.251 104.348 266.449 103.938C266.651 103.524 266.931 103.202 267.289 102.971C267.65 102.736 268.041 102.619 268.461 102.619C269.148 102.619 269.682 102.845 270.062 103.298C270.443 103.75 270.634 104.398 270.634 105.241V105.617H267.055C267.068 106.138 267.219 106.56 267.509 106.882C267.802 107.201 268.173 107.36 268.622 107.36C268.941 107.36 269.211 107.295 269.433 107.165C269.654 107.035 269.848 106.862 270.014 106.647L270.565 107.077C270.123 107.757 269.459 108.098 268.573 108.098ZM268.461 103.361C268.096 103.361 267.79 103.495 267.543 103.762C267.296 104.025 267.143 104.396 267.084 104.875H269.73V104.807C269.704 104.348 269.581 103.993 269.359 103.742C269.138 103.488 268.839 103.361 268.461 103.361Z" fill="#28445C"/>
<path opacity="0.7" d="M55.165 89H53.8936V80.5713L51.3438 81.5078V80.3594L54.9668 78.999H55.165V89ZM65.1113 84.7549C65.1113 86.236 64.8584 87.3366 64.3525 88.0566C63.8467 88.7767 63.056 89.1367 61.9805 89.1367C60.9186 89.1367 60.1325 88.7858 59.6221 88.084C59.1117 87.3776 58.8473 86.3249 58.8291 84.9258V83.2373C58.8291 81.7744 59.082 80.6875 59.5879 79.9766C60.0938 79.2656 60.8867 78.9102 61.9668 78.9102C63.0378 78.9102 63.8262 79.2542 64.332 79.9424C64.8379 80.626 65.0977 81.6833 65.1113 83.1143V84.7549ZM63.8467 83.0254C63.8467 81.9544 63.6963 81.1751 63.3955 80.6875C63.0947 80.1953 62.6185 79.9492 61.9668 79.9492C61.3197 79.9492 60.848 80.193 60.5518 80.6807C60.2555 81.1683 60.1029 81.918 60.0938 82.9297V84.9531C60.0938 86.0286 60.2487 86.8239 60.5586 87.3389C60.873 87.8493 61.347 88.1045 61.9805 88.1045C62.6048 88.1045 63.0674 87.863 63.3682 87.3799C63.6735 86.8968 63.833 86.1357 63.8467 85.0967V83.0254ZM68.9258 85.5752L68.1328 86.4023V89H66.8682V78.5H68.1328V84.8506L68.8096 84.0371L71.1133 81.6035H72.6514L69.7734 84.6934L72.9863 89H71.5029L68.9258 85.5752Z" fill="#28445C"/>
<path opacity="0.7" d="M60.833 127.04V128.113H60.6006C59.6162 128.132 58.8324 128.423 58.249 128.988C57.6657 129.553 57.3285 130.349 57.2373 131.374C57.7614 130.772 58.4769 130.472 59.3838 130.472C60.2497 130.472 60.9401 130.777 61.4551 131.388C61.9746 131.998 62.2344 132.787 62.2344 133.753C62.2344 134.778 61.9541 135.599 61.3936 136.214C60.8376 136.829 60.0902 137.137 59.1514 137.137C58.1989 137.137 57.4264 136.772 56.834 136.043C56.2415 135.309 55.9453 134.366 55.9453 133.213V132.728C55.9453 130.896 56.335 129.496 57.1143 128.53C57.8981 127.56 59.0625 127.063 60.6074 127.04H60.833ZM59.1719 131.524C58.7389 131.524 58.3402 131.654 57.9756 131.914C57.611 132.174 57.3581 132.5 57.2168 132.892V133.356C57.2168 134.177 57.4014 134.838 57.7705 135.339C58.1396 135.84 58.5999 136.091 59.1514 136.091C59.721 136.091 60.1676 135.881 60.4912 135.462C60.8193 135.043 60.9834 134.493 60.9834 133.814C60.9834 133.131 60.8171 132.579 60.4844 132.16C60.1562 131.736 59.7188 131.524 59.1719 131.524ZM65.9258 133.575L65.1328 134.402V137H63.8682V126.5H65.1328V132.851L65.8096 132.037L68.1133 129.604H69.6514L66.7734 132.693L69.9863 137H68.5029L65.9258 133.575Z" fill="#28445C"/>
<path opacity="0.7" d="M56.4512 180.01L56.957 175.047H62.0566V176.216H58.0303L57.7295 178.93C58.2171 178.643 58.7708 178.499 59.3906 178.499C60.2975 178.499 61.0176 178.8 61.5508 179.401C62.084 179.998 62.3506 180.807 62.3506 181.828C62.3506 182.854 62.0726 183.662 61.5166 184.255C60.9652 184.843 60.1927 185.137 59.1992 185.137C58.3197 185.137 57.6019 184.893 57.0459 184.405C56.4899 183.918 56.1732 183.243 56.0957 182.382H57.292C57.3695 182.951 57.5723 183.382 57.9004 183.674C58.2285 183.961 58.6615 184.104 59.1992 184.104C59.7871 184.104 60.2474 183.904 60.5801 183.503C60.9173 183.102 61.0859 182.548 61.0859 181.842C61.0859 181.176 60.9036 180.643 60.5391 180.242C60.179 179.837 59.6982 179.634 59.0967 179.634C58.5452 179.634 58.1123 179.755 57.7979 179.996L57.4629 180.27L56.4512 180.01ZM65.9258 181.575L65.1328 182.402V185H63.8682V174.5H65.1328V180.851L65.8096 180.037L68.1133 177.604H69.6514L66.7734 180.693L69.9863 185H68.5029L65.9258 181.575Z" fill="#28445C"/>
<path opacity="0.7" d="M60.0264 233H58.7549V224.571L56.2051 225.508V224.359L59.8281 222.999H60.0264V233ZM65.9258 229.575L65.1328 230.402V233H63.8682V222.5H65.1328V228.851L65.8096 228.037L68.1133 225.604H69.6514L66.7734 228.693L69.9863 233H68.5029L65.9258 229.575Z" fill="#28445C"/>
<path d="M63.233 34.7273C63.233 30.0753 60.4489 27.2557 56.6847 27.2557C52.9062 27.2557 50.1293 30.0753 50.1293 34.7273C50.1293 39.3722 52.9062 42.1989 56.6847 42.1989C60.4489 42.1989 63.233 39.3793 63.233 34.7273ZM61.0597 34.7273C61.0597 38.2713 59.1847 40.196 56.6847 40.196C54.1776 40.196 52.3097 38.2713 52.3097 34.7273C52.3097 31.1832 54.1776 29.2585 56.6847 29.2585C59.1847 29.2585 61.0597 31.1832 61.0597 34.7273ZM75.131 31.0909H72.8512L70.0955 39.4858H69.9819L67.2191 31.0909H64.9393L68.9023 42H71.1751L75.131 31.0909ZM81.4379 42.2202C83.8171 42.2202 85.5004 41.0483 85.9833 39.2727L83.9734 38.9105C83.5898 39.9403 82.6665 40.4659 81.4592 40.4659C79.641 40.4659 78.4194 39.2869 78.3626 37.1847H86.1183V36.4318C86.1183 32.4901 83.7603 30.9489 81.2887 30.9489C78.2489 30.9489 76.2461 33.2642 76.2461 36.6165C76.2461 40.0043 78.2205 42.2202 81.4379 42.2202ZM78.3697 35.5938C78.4549 34.0455 79.5771 32.7031 81.3029 32.7031C82.9506 32.7031 84.0302 33.9247 84.0373 35.5938H78.3697ZM88.4744 42H90.598V35.3381C90.598 33.9105 91.6989 32.8807 93.2045 32.8807C93.6449 32.8807 94.142 32.9588 94.3125 33.0085V30.9773C94.0994 30.9489 93.6804 30.9276 93.4105 30.9276C92.1321 30.9276 91.0384 31.652 90.6406 32.8239H90.527V31.0909H88.4744V42ZM105.815 31.0909H103.535L100.779 39.4858H100.665L97.9027 31.0909H95.6229L99.5859 42H101.859L105.815 31.0909ZM107.81 42H109.934V31.0909H107.81V42ZM108.883 29.4077C109.614 29.4077 110.225 28.8395 110.225 28.1435C110.225 27.4474 109.614 26.8722 108.883 26.8722C108.144 26.8722 107.54 27.4474 107.54 28.1435C107.54 28.8395 108.144 29.4077 108.883 29.4077ZM117.493 42.2202C119.872 42.2202 121.555 41.0483 122.038 39.2727L120.028 38.9105C119.645 39.9403 118.721 40.4659 117.514 40.4659C115.696 40.4659 114.474 39.2869 114.417 37.1847H122.173V36.4318C122.173 32.4901 119.815 30.9489 117.343 30.9489C114.304 30.9489 112.301 33.2642 112.301 36.6165C112.301 40.0043 114.275 42.2202 117.493 42.2202ZM114.424 35.5938C114.51 34.0455 115.632 32.7031 117.358 32.7031C119.005 32.7031 120.085 33.9247 120.092 35.5938H114.424ZM126.875 42H129.034L131.25 34.1236H131.413L133.629 42H135.795L138.998 31.0909H136.804L134.68 39.0668H134.574L132.443 31.0909H130.248L128.103 39.1023H127.997L125.859 31.0909H123.664L126.875 42Z" fill="#28445C"/>
<path d="M141.91 188.702C123.522 213.959 103.091 191.024 92 176.509V232.5H356V87C353.373 90.4837 348.519 97.6892 331.045 119.898C307.403 149.945 300.828 162.574 282.886 141.236C262.746 117.285 246.985 112.06 233.851 146.461C220.541 187.918 211.444 183.041 196.199 176.509C167.741 164.315 160.736 158.219 141.91 188.702Z" fill="url(#paint0_linear_2_1449)"/>
<g opacity="0.1">
<line y1="-0.75" x2="162" y2="-0.749993" transform="matrix(-4.37114e-08 1 1 4.37114e-08 102 70)" stroke="#CBCBCB" stroke-width="1.5"/>
<line y1="-0.75" x2="162" y2="-0.749993" transform="matrix(-4.37114e-08 1 1 4.37114e-08 102 70)" stroke="#CBCBCB" stroke-width="1.5"/>
<line y1="-0.75" x2="162" y2="-0.749993" transform="matrix(-4.37114e-08 1 1 4.37114e-08 102 70)" stroke="#CBCBCB" stroke-width="1.5"/>
</g>
<g opacity="0.1">
<line y1="-0.75" x2="162" y2="-0.749993" transform="matrix(-4.37114e-08 1 1 4.37114e-08 162 70)" stroke="#CBCBCB" stroke-width="1.5"/>
<line y1="-0.75" x2="162" y2="-0.749993" transform="matrix(-4.37114e-08 1 1 4.37114e-08 162 70)" stroke="#CBCBCB" stroke-width="1.5"/>
<line y1="-0.75" x2="162" y2="-0.749993" transform="matrix(-4.37114e-08 1 1 4.37114e-08 162 70)" stroke="#CBCBCB" stroke-width="1.5"/>
</g>
<g opacity="0.1">
<line y1="-0.75" x2="162" y2="-0.749993" transform="matrix(-4.37114e-08 1 1 4.37114e-08 222 70)" stroke="#CBCBCB" stroke-width="1.5"/>
<line y1="-0.75" x2="162" y2="-0.749993" transform="matrix(-4.37114e-08 1 1 4.37114e-08 222 70)" stroke="#CBCBCB" stroke-width="1.5"/>
<line y1="-0.75" x2="162" y2="-0.749993" transform="matrix(-4.37114e-08 1 1 4.37114e-08 222 70)" stroke="#CBCBCB" stroke-width="1.5"/>
</g>
<g opacity="0.1">
<line y1="-0.75" x2="162" y2="-0.749993" transform="matrix(-4.37114e-08 1 1 4.37114e-08 342 70)" stroke="#CBCBCB" stroke-width="1.5"/>
<line y1="-0.75" x2="162" y2="-0.749993" transform="matrix(-4.37114e-08 1 1 4.37114e-08 342 70)" stroke="#CBCBCB" stroke-width="1.5"/>
<line y1="-0.75" x2="162" y2="-0.749993" transform="matrix(-4.37114e-08 1 1 4.37114e-08 342 70)" stroke="#CBCBCB" stroke-width="1.5"/>
</g>
<g opacity="0.3">
<line y1="-0.75" x2="162" y2="-0.749993" transform="matrix(-4.37114e-08 1 1 4.37114e-08 282 70)" stroke="#CBCBCB" stroke-width="1.5"/>
<line y1="-0.75" x2="162" y2="-0.749993" transform="matrix(-4.37114e-08 1 1 4.37114e-08 282 70)" stroke="#CBCBCB" stroke-width="1.5"/>
<line y1="-0.75" x2="162" y2="-0.749993" transform="matrix(-4.37114e-08 1 1 4.37114e-08 282 70)" stroke="#CBCBCB" stroke-width="1.5"/>
</g>
<path d="M92 176.509C103.091 191.024 123.522 213.959 141.91 188.702C160.736 158.219 167.741 164.315 196.199 176.509C211.444 183.041 220.541 187.918 233.851 146.461C246.985 112.06 262.746 117.285 282.886 141.236C300.828 162.574 307.403 149.945 331.045 119.898C348.519 97.6892 353.373 90.4837 356 87" stroke="#355C7D" stroke-width="3"/>
<circle cx="281.5" cy="138.5" r="7.5" fill="#52BD95"/>
<circle cx="281.5" cy="138.5" r="2.5" fill="white"/>
<rect x="271" y="18" width="85" height="26" rx="13" fill="#52BD95"/>
<path d="M291.062 26.2727V35H292.315V28.6804H292.396L294.97 34.9872H296.01L298.584 28.6847H298.665V35H299.917V26.2727H298.319L295.541 33.0568H295.439L292.66 26.2727H291.062ZM304.487 35.1321C306.332 35.1321 307.538 33.7812 307.538 31.7571C307.538 29.7202 306.332 28.3693 304.487 28.3693C302.642 28.3693 301.436 29.7202 301.436 31.7571C301.436 33.7812 302.642 35.1321 304.487 35.1321ZM304.491 34.0625C303.285 34.0625 302.722 33.0099 302.722 31.7528C302.722 30.5 303.285 29.4347 304.491 29.4347C305.688 29.4347 306.251 30.5 306.251 31.7528C306.251 33.0099 305.688 34.0625 304.491 34.0625ZM310.234 31.1136C310.234 30.0696 310.873 29.473 311.76 29.473C312.625 29.473 313.149 30.0398 313.149 30.9901V35H314.423V30.8366C314.423 29.2173 313.532 28.3693 312.194 28.3693C311.21 28.3693 310.567 28.8253 310.264 29.5199H310.183V28.4545H308.96V35H310.234V31.1136ZM319.187 28.4545H317.845V26.8864H316.571V28.4545H315.612V29.4773H316.571V33.3423C316.567 34.5312 317.474 35.1065 318.48 35.0852C318.885 35.081 319.157 35.0043 319.307 34.9489L319.077 33.8963C318.991 33.9134 318.834 33.9517 318.629 33.9517C318.216 33.9517 317.845 33.8153 317.845 33.0781V29.4773H319.187V28.4545ZM322.012 31.1136C322.012 30.0696 322.672 29.473 323.58 29.473C324.458 29.473 324.982 30.0312 324.982 30.9901V35H326.256V30.8366C326.256 29.2045 325.361 28.3693 324.014 28.3693C322.996 28.3693 322.382 28.8125 322.075 29.5199H321.994V26.2727H320.737V35H322.012V31.1136ZM329.23 26.2727H327.956V35H329.23V26.2727ZM331.75 37.4545C332.802 37.4545 333.467 36.9048 333.846 35.8736L336.552 28.4673L335.176 28.4545L333.518 33.5341H333.45L331.792 28.4545H330.429L332.824 35.0852L332.666 35.5199C332.342 36.3892 331.886 36.4616 331.187 36.2699L330.881 37.3139C331.034 37.3821 331.366 37.4545 331.75 37.4545Z" fill="white"/>
<defs>
<filter id="filter0_d_2_1449" x="0.992112" y="0" width="403.016" height="304.564" filterUnits="userSpaceOnUse" color-interpolation-filters="sRGB">
<feFlood flood-opacity="0" result="BackgroundImageFix"/>
<feColorMatrix in="SourceAlpha" type="matrix" values="0 0 0 0 0 0 0 0 0 0 0 0 0 0 0 0 0 0 127 0" result="hardAlpha"/>
<feMorphology radius="14.7337" operator="erode" in="SourceAlpha" result="effect1_dropShadow_2_1449"/>
<feOffset dy="24.5562"/>
<feGaussianBlur stdDeviation="16.3708"/>
<feColorMatrix type="matrix" values="0 0 0 0 0.583333 0 0 0 0 0.583333 0 0 0 0 0.583333 0 0 0 0.25 0"/>
<feBlend mode="normal" in2="BackgroundImageFix" result="effect1_dropShadow_2_1449"/>
<feBlend mode="normal" in="SourceGraphic" in2="effect1_dropShadow_2_1449" result="shape"/>
</filter>
<linearGradient id="paint0_linear_2_1449" x1="224" y1="87" x2="224" y2="232.5" gradientUnits="userSpaceOnUse">
<stop stop-color="#E5EAEF"/>
<stop offset="1" stop-color="white"/>
</linearGradient>
</defs>
</svg>
