<svg width="262" height="315" viewBox="0 0 262 315" fill="none" xmlns="http://www.w3.org/2000/svg">
<g filter="url(#filter0_d_2_1471)">
<rect x="19" width="224.551" height="271.502" rx="4.91124" fill="white"/>
</g>
<path d="M53.3524 233.628C55.1081 233.628 56.3609 232.388 56.3567 230.688C56.3609 229.001 55.1848 227.773 53.5953 227.773C52.9476 227.773 52.3467 228.02 52.0058 228.353H51.9547L52.2317 225.911H55.9348V224.782H51.1365L50.6464 229.18L51.8524 229.359C52.1805 229.065 52.7686 228.864 53.297 228.864C54.3325 228.873 55.0825 229.648 55.0825 230.714C55.0825 231.762 54.3538 232.52 53.3524 232.52C52.5087 232.52 51.8396 231.984 51.7714 231.234H50.493C50.5442 232.623 51.7501 233.628 53.3524 233.628ZM60.7938 233.628C62.5495 233.628 63.8023 232.388 63.7981 230.688C63.8023 229.001 62.6262 227.773 61.0367 227.773C60.389 227.773 59.7881 228.02 59.4472 228.353H59.3961L59.6731 225.911H63.3762V224.782H58.5779L58.0878 229.18L59.2938 229.359C59.6219 229.065 60.21 228.864 60.7384 228.864C61.7739 228.873 62.5239 229.648 62.5239 230.714C62.5239 231.762 61.7952 232.52 60.7938 232.52C59.9501 232.52 59.281 231.984 59.2128 231.234H57.9344C57.9856 232.623 59.1915 233.628 60.7938 233.628ZM69.9099 231.873C69.9142 232.857 70.5321 233.688 71.6869 233.688C72.829 233.688 73.4554 232.857 73.4554 231.873V231.413C73.4554 230.424 72.846 229.597 71.6869 229.597C70.5491 229.597 69.9142 230.428 69.9099 231.413V231.873ZM65.5207 226.878C65.5207 227.863 66.1429 228.694 67.2977 228.694C68.4355 228.694 69.0662 227.867 69.0619 226.878V226.418C69.0662 225.43 68.4525 224.603 67.2977 224.603C66.1642 224.603 65.5207 225.43 65.5207 226.418V226.878ZM65.8787 233.509H66.8971L72.8971 224.782H71.8787L65.8787 233.509ZM70.9028 231.413C70.9071 230.922 71.1202 230.449 71.6869 230.449C72.275 230.449 72.4582 230.922 72.4582 231.413V231.873C72.4582 232.363 72.2579 232.836 71.6869 232.836C71.1074 232.836 70.9071 232.359 70.9028 231.873V231.413ZM66.5179 226.418C66.5179 225.932 66.731 225.455 67.2977 225.455C67.8858 225.455 68.069 225.928 68.069 226.418V226.878C68.069 227.368 67.8687 227.842 67.2977 227.842C66.7182 227.842 66.5179 227.368 66.5179 226.878V226.418Z" fill="#333333"/>
<path d="M40.0253 248.839H43.6958V248.214H40.9912V248.169L42.298 246.771C43.298 245.7 43.5935 245.2 43.5935 244.555C43.5935 243.657 42.8662 242.941 41.8435 242.941C40.8236 242.941 40.048 243.635 40.048 244.657H40.7185C40.7185 243.995 41.1475 243.555 41.8208 243.555C42.4514 243.555 42.9344 243.941 42.9344 244.555C42.9344 245.092 42.6191 245.49 41.9458 246.226L40.0253 248.328V248.839ZM46.7668 248.919C48.0509 248.919 48.7895 247.831 48.7895 245.93C48.7895 244.044 48.0395 242.941 46.7668 242.941C45.4941 242.941 44.7441 244.044 44.7441 245.93C44.7441 247.831 45.4827 248.919 46.7668 248.919ZM46.7668 248.294C45.9202 248.294 45.4259 247.444 45.4259 245.93C45.4259 244.419 45.9259 243.555 46.7668 243.555C47.6077 243.555 48.1077 244.419 48.1077 245.93C48.1077 247.444 47.6134 248.294 46.7668 248.294ZM52.3804 245.618H49.835V246.243H52.3804V245.618ZM53.2753 248.839H56.9458V248.214H54.2412V248.169L55.548 246.771C56.548 245.7 56.8435 245.2 56.8435 244.555C56.8435 243.657 56.1162 242.941 55.0935 242.941C54.0736 242.941 53.298 243.635 53.298 244.657H53.9685C53.9685 243.995 54.3975 243.555 55.0708 243.555C55.7014 243.555 56.1844 243.941 56.1844 244.555C56.1844 245.092 55.8691 245.49 55.1958 246.226L53.2753 248.328V248.839ZM59.9372 248.919C61.0452 248.919 61.8577 248.101 61.8577 246.987C61.8577 245.859 61.0736 245.032 60.0054 245.032C59.6134 245.032 59.2327 245.172 58.9941 245.362H58.96L59.1645 243.646H61.5963V243.021H58.5736L58.2213 245.885L58.8804 245.964C59.1219 245.791 59.5338 245.666 59.8918 245.669C60.6333 245.674 61.1759 246.237 61.1759 246.998C61.1759 247.745 60.6531 248.294 59.9372 248.294C59.3406 248.294 58.8662 247.91 58.8122 247.385H58.1304C58.173 248.271 58.9372 248.919 59.9372 248.919ZM65.6794 250.476C66.2845 250.476 66.7107 250.155 66.9635 249.476L68.8215 244.487L68.0885 244.476L66.884 247.953H66.8385L65.634 244.476H64.9067L66.5203 248.862L66.3953 249.203C66.151 249.868 65.8499 249.93 65.3612 249.805L65.1908 250.396C65.259 250.43 65.4522 250.476 65.6794 250.476ZM71.3818 248.93C72.2682 248.93 72.9159 248.487 73.1205 247.828L72.4728 247.646C72.3023 248.101 71.9074 248.328 71.3818 248.328C70.5949 248.328 70.0523 247.819 70.021 246.885H73.1887V246.601C73.1887 244.976 72.2228 244.419 71.3137 244.419C70.1318 244.419 69.3478 245.351 69.3478 246.691C69.3478 248.032 70.1205 248.93 71.3818 248.93ZM70.021 246.305C70.0665 245.626 70.5466 245.021 71.3137 245.021C72.0409 245.021 72.5068 245.566 72.5068 246.305H70.021ZM75.4926 248.941C76.254 248.941 76.6517 248.532 76.7881 248.248H76.8222V248.839H77.4926V245.964C77.4926 244.578 76.4358 244.419 75.879 244.419C75.2199 244.419 74.4699 244.646 74.129 245.441L74.7654 245.669C74.9131 245.351 75.2625 245.01 75.9017 245.01C76.5182 245.01 76.8222 245.336 76.8222 245.896V245.919C76.8222 246.243 76.4926 246.214 75.6972 246.316C74.8875 246.422 74.004 246.601 74.004 247.601C74.004 248.453 74.6631 248.941 75.4926 248.941ZM75.5949 248.339C75.0608 248.339 74.6745 248.101 74.6745 247.635C74.6745 247.123 75.1404 246.964 75.6631 246.896C75.9472 246.862 76.7085 246.782 76.8222 246.646V247.26C76.8222 247.805 76.3904 248.339 75.5949 248.339ZM78.7164 248.839H79.3868V246.078C79.3868 245.487 79.8527 245.055 80.4891 245.055C80.6681 245.055 80.8527 245.089 80.8982 245.101V244.419C80.8215 244.413 80.6453 244.407 80.5459 244.407C80.0232 244.407 79.5686 244.703 79.4095 245.135H79.3641V244.476H78.7164V248.839Z" fill="#858585"/>
<circle cx="42.4831" cy="228.653" r="3.06206" fill="#2B50ED"/>
<path d="M101.505 233.511H107.249V232.382H103.32V232.318L105.055 230.503C106.653 228.887 107.109 228.116 107.109 227.14C107.109 225.738 105.966 224.664 104.322 224.664C102.689 224.664 101.496 225.721 101.496 227.315H102.753C102.749 226.378 103.354 225.764 104.296 225.764C105.182 225.764 105.856 226.309 105.856 227.179C105.856 227.95 105.395 228.504 104.458 229.497L101.505 232.557V233.511ZM111.903 233.656C113.918 233.656 115.099 232.011 115.099 229.152C115.099 226.314 113.901 224.664 111.903 224.664C109.9 224.664 108.707 226.309 108.702 229.152C108.702 232.007 109.883 233.652 111.903 233.656ZM111.903 232.518C110.722 232.518 110.011 231.333 110.011 229.152C110.015 226.978 110.726 225.781 111.903 225.781C113.074 225.781 113.79 226.978 113.79 229.152C113.79 231.333 113.079 232.518 111.903 232.518ZM121.166 231.875C121.17 232.859 121.788 233.69 122.943 233.69C124.085 233.69 124.711 232.859 124.711 231.875V231.414C124.711 230.426 124.102 229.599 122.943 229.599C121.805 229.599 121.17 230.43 121.166 231.414V231.875ZM116.776 226.88C116.776 227.865 117.399 228.696 118.553 228.696C119.691 228.696 120.322 227.869 120.318 226.88V226.42C120.322 225.432 119.708 224.605 118.553 224.605C117.42 224.605 116.776 225.432 116.776 226.42V226.88ZM117.134 233.511H118.153L124.153 224.784H123.134L117.134 233.511ZM122.159 231.414C122.163 230.924 122.376 230.451 122.943 230.451C123.531 230.451 123.714 230.924 123.714 231.414V231.875C123.714 232.365 123.514 232.838 122.943 232.838C122.363 232.838 122.163 232.36 122.159 231.875V231.414ZM117.774 226.42C117.774 225.934 117.987 225.457 118.553 225.457C119.142 225.457 119.325 225.93 119.325 226.42V226.88C119.325 227.37 119.125 227.843 118.553 227.843C117.974 227.843 117.774 227.37 117.774 226.88V226.42Z" fill="#333333"/>
<path d="M91.0584 248.841H94.7289V248.216H92.0243V248.171L93.3311 246.773C94.3311 245.702 94.6266 245.202 94.6266 244.557C94.6266 243.659 93.8993 242.943 92.8766 242.943C91.8567 242.943 91.0811 243.637 91.0811 244.659H91.7516C91.7516 243.997 92.1806 243.557 92.8539 243.557C93.4846 243.557 93.9675 243.943 93.9675 244.557C93.9675 245.094 93.6522 245.492 92.9789 246.227L91.0584 248.33V248.841ZM97.834 248.921C99.0101 248.935 99.7772 248.049 99.7772 246.966C99.7772 245.841 98.9448 245.034 97.9476 245.034C97.3482 245.034 96.834 245.327 96.5158 245.807H96.4704C96.4732 244.389 97.0243 243.568 97.9249 243.568C98.5385 243.568 98.9079 243.955 99.0385 244.477H99.7317C99.5897 243.574 98.9022 242.943 97.9249 242.943C96.6152 242.943 95.8113 244.102 95.8113 246.159C95.8113 248.31 96.8794 248.909 97.834 248.921ZM97.834 248.296C97.1039 248.296 96.5698 247.674 96.5726 246.977C96.5755 246.281 97.1351 245.659 97.8567 245.659C98.5698 245.659 99.0954 246.245 99.0954 246.966C99.0954 247.705 98.5471 248.296 97.834 248.296ZM103.406 245.62H100.86V246.245H103.406V245.62ZM106.446 248.921C107.574 248.921 108.412 248.213 108.412 247.262C108.412 246.523 107.975 245.986 107.242 245.864V245.818C107.83 245.639 108.196 245.156 108.196 244.5C108.196 243.676 107.546 242.943 106.469 242.943C105.463 242.943 104.628 243.563 104.594 244.477H105.276C105.301 243.898 105.852 243.557 106.458 243.557C107.1 243.557 107.514 243.946 107.514 244.534C107.514 245.148 107.034 245.546 106.344 245.546H105.878V246.171H106.344C107.227 246.171 107.719 246.62 107.719 247.262C107.719 247.878 107.182 248.296 106.435 248.296C105.762 248.296 105.227 247.949 105.185 247.387H104.469C104.512 248.301 105.318 248.921 106.446 248.921ZM111.392 248.921C112.5 248.921 113.313 248.102 113.313 246.989C113.313 245.861 112.529 245.034 111.46 245.034C111.068 245.034 110.688 245.174 110.449 245.364H110.415L110.619 243.648H113.051V243.023H110.029L109.676 245.887L110.335 245.966C110.577 245.793 110.989 245.668 111.347 245.671C112.088 245.676 112.631 246.239 112.631 247C112.631 247.747 112.108 248.296 111.392 248.296C110.796 248.296 110.321 247.912 110.267 247.387H109.585C109.628 248.273 110.392 248.921 111.392 248.921ZM117.134 250.477C117.74 250.477 118.166 250.156 118.419 249.477L120.276 244.489L119.544 244.477L118.339 247.955H118.294L117.089 244.477H116.362L117.975 248.864L117.85 249.205C117.606 249.87 117.305 249.932 116.816 249.807L116.646 250.398C116.714 250.432 116.907 250.477 117.134 250.477ZM122.837 248.932C123.723 248.932 124.371 248.489 124.575 247.83L123.928 247.648C123.757 248.102 123.362 248.33 122.837 248.33C122.05 248.33 121.507 247.821 121.476 246.887H124.644V246.602C124.644 244.977 123.678 244.421 122.769 244.421C121.587 244.421 120.803 245.352 120.803 246.693C120.803 248.034 121.575 248.932 122.837 248.932ZM121.476 246.307C121.521 245.628 122.002 245.023 122.769 245.023C123.496 245.023 123.962 245.568 123.962 246.307H121.476ZM126.948 248.943C127.709 248.943 128.107 248.534 128.243 248.25H128.277V248.841H128.948V245.966C128.948 244.58 127.891 244.421 127.334 244.421C126.675 244.421 125.925 244.648 125.584 245.443L126.22 245.671C126.368 245.352 126.718 245.012 127.357 245.012C127.973 245.012 128.277 245.338 128.277 245.898V245.921C128.277 246.245 127.948 246.216 127.152 246.318C126.343 246.424 125.459 246.602 125.459 247.602C125.459 248.455 126.118 248.943 126.948 248.943ZM127.05 248.341C126.516 248.341 126.129 248.102 126.129 247.637C126.129 247.125 126.595 246.966 127.118 246.898C127.402 246.864 128.164 246.784 128.277 246.648V247.262C128.277 247.807 127.845 248.341 127.05 248.341ZM130.171 248.841H130.842V246.08C130.842 245.489 131.308 245.057 131.944 245.057C132.123 245.057 132.308 245.091 132.353 245.102V244.421C132.276 244.415 132.1 244.409 132.001 244.409C131.478 244.409 131.024 244.705 130.865 245.137H130.819V244.477H130.171V248.841Z" fill="#858585"/>
<circle cx="93.5163" cy="228.655" r="3.06206" fill="#F1F3F6"/>
<path d="M155.851 224.784H154.568L152.39 226.208V227.469L154.478 226.105H154.529V233.512H155.851V224.784ZM158.505 233.512H159.882L163.679 225.952V224.784H157.909V225.914H162.315V225.978L158.505 233.512ZM169.716 231.875C169.72 232.86 170.338 233.691 171.493 233.691C172.635 233.691 173.261 232.86 173.261 231.875V231.415C173.261 230.426 172.652 229.6 171.493 229.6C170.355 229.6 169.72 230.431 169.716 231.415V231.875ZM165.327 226.881C165.327 227.865 165.949 228.696 167.104 228.696C168.241 228.696 168.872 227.87 168.868 226.881V226.421C168.872 225.432 168.259 224.605 167.104 224.605C165.97 224.605 165.327 225.432 165.327 226.421V226.881ZM165.685 233.512H166.703L172.703 224.784H171.685L165.685 233.512ZM170.709 231.415C170.713 230.925 170.926 230.452 171.493 230.452C172.081 230.452 172.264 230.925 172.264 231.415V231.875C172.264 232.365 172.064 232.838 171.493 232.838C170.913 232.838 170.713 232.361 170.709 231.875V231.415ZM166.324 226.421C166.324 225.935 166.537 225.458 167.104 225.458C167.692 225.458 167.875 225.931 167.875 226.421V226.881C167.875 227.371 167.675 227.844 167.104 227.844C166.524 227.844 166.324 227.371 166.324 226.881V226.421Z" fill="#333333"/>
<path d="M144.059 248.921C145.187 248.921 146.025 248.214 146.025 247.262C146.025 246.523 145.587 245.987 144.854 245.864V245.819C145.442 245.64 145.809 245.157 145.809 244.501C145.809 243.677 145.158 242.944 144.082 242.944C143.076 242.944 142.241 243.563 142.207 244.478H142.888C142.914 243.898 143.465 243.558 144.07 243.558C144.712 243.558 145.127 243.947 145.127 244.535C145.127 245.148 144.647 245.546 143.957 245.546H143.491V246.171H143.957C144.84 246.171 145.332 246.62 145.332 247.262C145.332 247.879 144.795 248.296 144.048 248.296C143.374 248.296 142.84 247.95 142.798 247.387H142.082C142.124 248.302 142.931 248.921 144.059 248.921ZM149.119 248.921C150.295 248.935 151.062 248.049 151.062 246.967C151.062 245.842 150.229 245.035 149.232 245.035C148.633 245.035 148.119 245.327 147.8 245.808H147.755C147.758 244.39 148.309 243.569 149.209 243.569C149.823 243.569 150.192 243.955 150.323 244.478H151.016C150.874 243.575 150.187 242.944 149.209 242.944C147.9 242.944 147.096 244.103 147.096 246.16C147.096 248.31 148.164 248.91 149.119 248.921ZM149.119 248.296C148.388 248.296 147.854 247.674 147.857 246.978C147.86 246.282 148.42 245.66 149.141 245.66C149.854 245.66 150.38 246.245 150.38 246.967C150.38 247.705 149.832 248.296 149.119 248.296ZM154.69 245.62H152.145V246.245H154.69V245.62ZM155.722 247.648H158.461V248.842H159.131V247.648H159.927V247.023H159.131V243.023H158.279L155.722 247.069V247.648ZM158.461 247.023H156.484V246.978L158.415 243.921H158.461V247.023ZM162.81 248.921C163.918 248.921 164.73 248.103 164.73 246.989C164.73 245.862 163.946 245.035 162.878 245.035C162.486 245.035 162.105 245.174 161.866 245.364H161.832L162.037 243.648H164.469V243.023H161.446L161.094 245.887L161.753 245.967C161.994 245.793 162.406 245.668 162.764 245.671C163.506 245.677 164.048 246.239 164.048 247.001C164.048 247.748 163.526 248.296 162.81 248.296C162.213 248.296 161.739 247.913 161.685 247.387H161.003C161.045 248.273 161.81 248.921 162.81 248.921ZM168.552 250.478C169.157 250.478 169.583 250.157 169.836 249.478L171.694 244.489L170.961 244.478L169.756 247.955H169.711L168.506 244.478H167.779L169.393 248.864L169.268 249.205C169.023 249.87 168.722 249.933 168.234 249.808L168.063 250.398C168.131 250.433 168.325 250.478 168.552 250.478ZM174.254 248.933C175.141 248.933 175.788 248.489 175.993 247.83L175.345 247.648C175.175 248.103 174.78 248.33 174.254 248.33C173.467 248.33 172.925 247.822 172.893 246.887H176.061V246.603C176.061 244.978 175.095 244.421 174.186 244.421C173.004 244.421 172.22 245.353 172.22 246.694C172.22 248.035 172.993 248.933 174.254 248.933ZM172.893 246.308C172.939 245.629 173.419 245.023 174.186 245.023C174.913 245.023 175.379 245.569 175.379 246.308H172.893ZM178.365 248.944C179.126 248.944 179.524 248.535 179.66 248.251H179.695V248.842H180.365V245.967C180.365 244.58 179.308 244.421 178.751 244.421C178.092 244.421 177.342 244.648 177.001 245.444L177.638 245.671C177.785 245.353 178.135 245.012 178.774 245.012C179.391 245.012 179.695 245.339 179.695 245.898V245.921C179.695 246.245 179.365 246.217 178.57 246.319C177.76 246.424 176.876 246.603 176.876 247.603C176.876 248.455 177.535 248.944 178.365 248.944ZM178.467 248.342C177.933 248.342 177.547 248.103 177.547 247.637C177.547 247.126 178.013 246.967 178.535 246.898C178.82 246.864 179.581 246.785 179.695 246.648V247.262C179.695 247.808 179.263 248.342 178.467 248.342ZM181.589 248.842H182.259V246.08C182.259 245.489 182.725 245.058 183.361 245.058C183.54 245.058 183.725 245.092 183.771 245.103V244.421C183.694 244.416 183.518 244.41 183.418 244.41C182.896 244.41 182.441 244.705 182.282 245.137H182.236V244.478H181.589V248.842Z" fill="#858585"/>
<circle cx="144.551" cy="228.656" r="3.06206" fill="#43C1EB"/>
<path d="M206.519 233.629C208.335 233.629 209.617 232.597 209.626 231.183C209.617 230.083 208.846 229.159 207.87 228.984V228.933C208.718 228.728 209.293 227.931 209.302 226.99C209.293 225.656 208.117 224.663 206.519 224.663C204.904 224.663 203.728 225.656 203.737 226.99C203.728 227.927 204.303 228.728 205.168 228.933V228.984C204.175 229.159 203.404 230.083 203.413 231.183C203.404 232.597 204.687 233.629 206.519 233.629ZM206.519 232.551C205.428 232.551 204.738 231.971 204.747 231.097C204.738 230.19 205.488 229.542 206.519 229.542C207.533 229.542 208.283 230.19 208.292 231.097C208.283 231.971 207.597 232.551 206.519 232.551ZM206.519 228.49C205.637 228.49 205.011 227.931 205.019 227.1C205.011 226.282 205.616 225.741 206.519 225.741C207.406 225.741 208.011 226.282 208.019 227.1C208.011 227.931 207.389 228.49 206.519 228.49ZM215.708 231.873C215.712 232.857 216.33 233.688 217.485 233.688C218.627 233.688 219.253 232.857 219.253 231.873V231.413C219.253 230.424 218.644 229.597 217.485 229.597C216.347 229.597 215.712 230.428 215.708 231.413V231.873ZM211.319 226.879C211.319 227.863 211.941 228.694 213.096 228.694C214.233 228.694 214.864 227.867 214.86 226.879V226.419C214.864 225.43 214.25 224.603 213.096 224.603C211.962 224.603 211.319 225.43 211.319 226.419V226.879ZM211.677 233.509H212.695L218.695 224.782H217.677L211.677 233.509ZM216.701 231.413C216.705 230.923 216.918 230.45 217.485 230.45C218.073 230.45 218.256 230.923 218.256 231.413V231.873C218.256 232.363 218.056 232.836 217.485 232.836C216.905 232.836 216.705 232.359 216.701 231.873V231.413ZM212.316 226.419C212.316 225.933 212.529 225.455 213.096 225.455C213.684 225.455 213.867 225.928 213.867 226.419V226.879C213.867 227.369 213.667 227.842 213.096 227.842C212.516 227.842 212.316 227.369 212.316 226.879V226.419Z" fill="#333333"/>
<path d="M192.988 247.646H195.726V248.84H196.397V247.646H197.192V247.021H196.397V243.021H195.544L192.988 247.067V247.646ZM195.726 247.021H193.749V246.976L195.681 243.919H195.726V247.021ZM200.189 248.919C201.365 248.933 202.132 248.047 202.132 246.965C202.132 245.84 201.299 245.033 200.302 245.033C199.703 245.033 199.189 245.325 198.87 245.805H198.825C198.828 244.388 199.379 243.567 200.279 243.567C200.893 243.567 201.262 243.953 201.393 244.476H202.086C201.944 243.572 201.257 242.942 200.279 242.942C198.97 242.942 198.166 244.101 198.166 246.158C198.166 248.308 199.234 248.908 200.189 248.919ZM200.189 248.294C199.458 248.294 198.924 247.672 198.927 246.976C198.93 246.28 199.49 245.658 200.211 245.658C200.924 245.658 201.45 246.243 201.45 246.965C201.45 247.703 200.902 248.294 200.189 248.294ZM205.76 245.618H203.215V246.243H205.76V245.618ZM208.86 248.919C210.037 248.933 210.804 248.047 210.804 246.965C210.804 245.84 209.971 245.033 208.974 245.033C208.375 245.033 207.86 245.325 207.542 245.805H207.497C207.5 244.388 208.051 243.567 208.951 243.567C209.565 243.567 209.934 243.953 210.065 244.476H210.758C210.616 243.572 209.929 242.942 208.951 242.942C207.642 242.942 206.838 244.101 206.838 246.158C206.838 248.308 207.906 248.908 208.86 248.919ZM208.86 248.294C208.13 248.294 207.596 247.672 207.599 246.976C207.602 246.28 208.162 245.658 208.883 245.658C209.596 245.658 210.122 246.243 210.122 246.965C210.122 247.703 209.574 248.294 208.86 248.294ZM213.819 248.919C215.103 248.919 215.841 247.831 215.841 245.93C215.841 244.044 215.091 242.942 213.819 242.942C212.546 242.942 211.796 244.044 211.796 245.93C211.796 247.831 212.534 248.919 213.819 248.919ZM213.819 248.294C212.972 248.294 212.478 247.445 212.478 245.93C212.478 244.419 212.978 243.555 213.819 243.555C214.659 243.555 215.159 244.419 215.159 245.93C215.159 247.445 214.665 248.294 213.819 248.294ZM219.614 250.476C220.219 250.476 220.645 250.155 220.898 249.476L222.756 244.487L222.023 244.476L220.819 247.953H220.773L219.569 244.476H218.841L220.455 248.862L220.33 249.203C220.086 249.868 219.784 249.93 219.296 249.805L219.125 250.396C219.194 250.43 219.387 250.476 219.614 250.476ZM225.316 248.93C226.203 248.93 226.851 248.487 227.055 247.828L226.407 247.646C226.237 248.101 225.842 248.328 225.316 248.328C224.529 248.328 223.987 247.82 223.956 246.885H227.123V246.601C227.123 244.976 226.157 244.419 225.248 244.419C224.066 244.419 223.282 245.351 223.282 246.692C223.282 248.033 224.055 248.93 225.316 248.93ZM223.956 246.305C224.001 245.626 224.481 245.021 225.248 245.021C225.976 245.021 226.441 245.567 226.441 246.305H223.956ZM229.427 248.942C230.189 248.942 230.586 248.533 230.723 248.249H230.757V248.84H231.427V245.965C231.427 244.578 230.37 244.419 229.814 244.419C229.154 244.419 228.404 244.646 228.064 245.442L228.7 245.669C228.848 245.351 229.197 245.01 229.836 245.01C230.453 245.01 230.757 245.337 230.757 245.896V245.919C230.757 246.243 230.427 246.215 229.632 246.317C228.822 246.422 227.939 246.601 227.939 247.601C227.939 248.453 228.598 248.942 229.427 248.942ZM229.529 248.34C228.995 248.34 228.609 248.101 228.609 247.635C228.609 247.124 229.075 246.965 229.598 246.896C229.882 246.862 230.643 246.783 230.757 246.646V247.26C230.757 247.805 230.325 248.34 229.529 248.34ZM232.651 248.84H233.321V246.078C233.321 245.487 233.787 245.055 234.424 245.055C234.603 245.055 234.787 245.09 234.833 245.101V244.419C234.756 244.413 234.58 244.408 234.48 244.408C233.958 244.408 233.503 244.703 233.344 245.135H233.299V244.476H232.651V248.84Z" fill="#858585"/>
<circle cx="195.582" cy="228.654" r="3.06206" fill="#FFEA00"/>
<circle cx="139.433" cy="127.117" r="55.117" stroke="#FFEA00" stroke-width="28.5792"/>
<path d="M84.3161 127.117C84.3161 96.6767 108.993 72 139.433 72" stroke="#F1F3F6" stroke-width="28.5792"/>
<path d="M139.44 72.0005C169.88 72.0005 194.557 96.6773 194.557 127.118C194.557 157.558 169.88 182.235 139.44 182.235C134.272 182.235 129.27 181.523 124.526 180.193" stroke="#0F8CEA" stroke-width="28.5792"/>
<path d="M82.2378 111.809C80.934 116.693 80.239 121.825 80.239 127.12C80.239 145.652 88.7547 162.195 102.087 173.05" stroke="#52BD95" stroke-width="36.7447"/>
<path d="M189.072 131.117C190.203 131.117 191.032 130.282 191.032 129.145C191.032 127.994 190.232 127.15 189.142 127.15C188.742 127.15 188.353 127.293 188.11 127.487H188.075L188.283 125.735H190.766V125.098H187.68L187.321 128.02L187.994 128.102C188.24 127.925 188.66 127.797 189.026 127.8C189.783 127.806 190.336 128.38 190.336 129.157C190.336 129.92 189.803 130.479 189.072 130.479C188.463 130.479 187.979 130.088 187.924 129.551H187.228C187.271 130.456 188.052 131.117 189.072 131.117ZM194.04 131.117C195.171 131.117 196 130.282 196 129.145C196 127.994 195.2 127.15 194.11 127.15C193.71 127.15 193.321 127.293 193.077 127.487H193.043L193.251 125.735H195.733V125.098H192.648L192.289 128.02L192.961 128.102C193.208 127.925 193.628 127.797 193.994 127.8C194.75 127.806 195.304 128.38 195.304 129.157C195.304 129.92 194.771 130.479 194.04 130.479C193.431 130.479 192.947 130.088 192.892 129.551H192.196C192.239 130.456 193.019 131.117 194.04 131.117ZM200.179 129.923C200.179 130.572 200.585 131.117 201.339 131.117C202.082 131.117 202.488 130.572 202.488 129.923V129.609C202.488 128.96 202.093 128.415 201.339 128.415C200.597 128.415 200.179 128.96 200.179 129.609V129.923ZM197.222 126.524C197.222 127.174 197.628 127.719 198.382 127.719C199.124 127.719 199.53 127.174 199.53 126.524V126.211C199.53 125.561 199.136 125.016 198.382 125.016C197.639 125.016 197.222 125.561 197.222 126.211V126.524ZM197.442 131.036H198.103L202.186 125.098H201.525L197.442 131.036ZM200.771 129.609C200.771 129.25 200.933 128.913 201.339 128.913C201.757 128.913 201.896 129.25 201.896 129.609V129.923C201.896 130.282 201.745 130.618 201.339 130.618C200.922 130.618 200.771 130.282 200.771 129.923V129.609ZM197.813 126.211C197.813 125.851 197.976 125.515 198.382 125.515C198.799 125.515 198.938 125.851 198.938 126.211V126.524C198.938 126.884 198.788 127.22 198.382 127.22C197.964 127.22 197.813 126.884 197.813 126.524V126.211Z" fill="white"/>
<path d="M97.3415 90.2073H101.088V89.5694H98.3274V89.523L99.6612 88.0963C100.682 87.0032 100.983 86.4928 100.983 85.8346C100.983 84.9183 100.241 84.1876 99.1973 84.1876C98.1563 84.1876 97.3647 84.8951 97.3647 85.939H98.049C98.049 85.2634 98.4868 84.8139 99.1741 84.8139C99.8178 84.8139 100.311 85.2083 100.311 85.8346C100.311 86.3826 99.9889 86.7886 99.3017 87.5396L97.3415 89.6854V90.2073ZM104.222 90.2885C105.533 90.2885 106.287 89.1779 106.287 87.238C106.287 85.3127 105.521 84.1876 104.222 84.1876C102.923 84.1876 102.158 85.3127 102.158 87.238C102.158 89.1779 102.912 90.2885 104.222 90.2885ZM104.222 89.6506C103.358 89.6506 102.854 88.7836 102.854 87.238C102.854 85.6954 103.364 84.8139 104.222 84.8139C105.081 84.8139 105.591 85.6954 105.591 87.238C105.591 88.7836 105.087 89.6506 104.222 89.6506ZM110.416 89.0938C110.416 89.7434 110.822 90.2885 111.576 90.2885C112.318 90.2885 112.724 89.7434 112.724 89.0938V88.7807C112.724 88.1311 112.33 87.586 111.576 87.586C110.834 87.586 110.416 88.1311 110.416 88.7807V89.0938ZM107.458 85.6954C107.458 86.3449 107.864 86.8901 108.618 86.8901C109.361 86.8901 109.767 86.3449 109.767 85.6954V85.3822C109.767 84.7327 109.372 84.1876 108.618 84.1876C107.876 84.1876 107.458 84.7327 107.458 85.3822V85.6954ZM107.679 90.2073H108.34L112.423 84.2688H111.762L107.679 90.2073ZM111.008 88.7807C111.008 88.4211 111.17 88.0847 111.576 88.0847C111.994 88.0847 112.133 88.4211 112.133 88.7807V89.0938C112.133 89.4534 111.982 89.7898 111.576 89.7898C111.158 89.7898 111.008 89.4534 111.008 89.0938V88.7807ZM108.05 85.3822C108.05 85.0227 108.212 84.6863 108.618 84.6863C109.036 84.6863 109.175 85.0227 109.175 85.3822V85.6954C109.175 86.055 109.024 86.3913 108.618 86.3913C108.201 86.3913 108.05 86.055 108.05 85.6954V85.3822Z" fill="#333333"/>
<path d="M80.3542 139.387H79.6351L78.1505 140.373V141.104L79.6003 140.141H79.6351V145.326H80.3542V139.387ZM82.2477 145.326H83.0016L85.6461 140.06V139.387H81.8418V140.025H84.9038V140.072L82.2477 145.326ZM89.7542 144.212C89.7542 144.862 90.1602 145.407 90.9141 145.407C91.6564 145.407 92.0624 144.862 92.0624 144.212V143.899C92.0624 143.25 91.668 142.705 90.9141 142.705C90.1718 142.705 89.7542 143.25 89.7542 143.899V144.212ZM86.7966 140.814C86.7966 141.464 87.2025 142.009 87.9564 142.009C88.6988 142.009 89.1047 141.464 89.1047 140.814V140.501C89.1047 139.851 88.7104 139.306 87.9564 139.306C87.2141 139.306 86.7966 139.851 86.7966 140.501V140.814ZM87.017 145.326H87.6781L91.7608 139.387H91.0997L87.017 145.326ZM90.3458 143.899C90.3458 143.54 90.5082 143.203 90.9141 143.203C91.3317 143.203 91.4709 143.54 91.4709 143.899V144.212C91.4709 144.572 91.3201 144.908 90.9141 144.908C90.4966 144.908 90.3458 144.572 90.3458 144.212V143.899ZM87.3881 140.501C87.3881 140.141 87.5505 139.805 87.9564 139.805C88.374 139.805 88.5132 140.141 88.5132 140.501V140.814C88.5132 141.174 88.3624 141.51 87.9564 141.51C87.5389 141.51 87.3881 141.174 87.3881 140.814V140.501Z" fill="white"/>
<path d="M111.497 178.068C112.683 178.068 113.509 177.375 113.515 176.409C113.509 175.658 113.007 175.021 112.367 174.902V174.867C112.923 174.722 113.289 174.177 113.294 173.545C113.289 172.64 112.529 171.967 111.497 171.967C110.453 171.967 109.693 172.64 109.699 173.545C109.693 174.177 110.058 174.722 110.627 174.867V174.902C109.974 175.021 109.473 175.658 109.478 176.409C109.473 177.375 110.299 178.068 111.497 178.068ZM111.497 177.43C110.682 177.43 110.18 177.013 110.186 176.375C110.18 175.705 110.734 175.226 111.497 175.226C112.248 175.226 112.802 175.705 112.807 176.375C112.802 177.013 112.3 177.43 111.497 177.43ZM111.497 174.612C110.847 174.612 110.389 174.206 110.395 173.591C110.389 172.988 110.83 172.593 111.497 172.593C112.152 172.593 112.593 172.988 112.599 173.591C112.593 174.206 112.135 174.612 111.497 174.612ZM117.653 176.873C117.653 177.523 118.059 178.068 118.813 178.068C119.556 178.068 119.962 177.523 119.962 176.873V176.56C119.962 175.911 119.567 175.366 118.813 175.366C118.071 175.366 117.653 175.911 117.653 176.56V176.873ZM114.696 173.475C114.696 174.125 115.102 174.67 115.856 174.67C116.598 174.67 117.004 174.125 117.004 173.475V173.162C117.004 172.512 116.61 171.967 115.856 171.967C115.113 171.967 114.696 172.512 114.696 173.162V173.475ZM114.916 177.987H115.577L119.66 172.048H118.999L114.916 177.987ZM118.245 176.56C118.245 176.201 118.407 175.864 118.813 175.864C119.231 175.864 119.37 176.201 119.37 176.56V176.873C119.37 177.233 119.219 177.569 118.813 177.569C118.396 177.569 118.245 177.233 118.245 176.873V176.56ZM115.287 173.162C115.287 172.802 115.45 172.466 115.856 172.466C116.273 172.466 116.412 172.802 116.412 173.162V173.475C116.412 173.835 116.262 174.171 115.856 174.171C115.438 174.171 115.287 173.835 115.287 173.475V173.162Z" fill="white"/>
<path d="M62.6747 24.5455C62.6747 21.0565 60.5866 18.9418 57.7635 18.9418C54.9297 18.9418 52.8469 21.0565 52.8469 24.5455C52.8469 28.0291 54.9297 30.1491 57.7635 30.1491C60.5866 30.1491 62.6747 28.0344 62.6747 24.5455ZM61.0447 24.5455C61.0447 27.2035 59.6385 28.647 57.7635 28.647C55.8832 28.647 54.4822 27.2035 54.4822 24.5455C54.4822 21.8874 55.8832 20.4439 57.7635 20.4439C59.6385 20.4439 61.0447 21.8874 61.0447 24.5455ZM69.7819 26.6069C69.7872 27.9972 68.7538 28.6577 67.8589 28.6577C66.8735 28.6577 66.1917 27.9439 66.1917 26.8306V21.8182H64.599V27.0224C64.599 29.0518 65.7123 30.1065 67.2836 30.1065C68.5141 30.1065 69.3504 29.4567 69.7286 28.5831H69.8138V30H71.3799V21.8182H69.7819V26.6069ZM73.5199 30H75.1126V25.0036C75.1126 23.9329 75.9382 23.1605 77.0675 23.1605C77.3977 23.1605 77.7706 23.2191 77.8984 23.2564V21.733C77.7386 21.7116 77.4244 21.6957 77.2219 21.6957C76.2631 21.6957 75.4428 22.239 75.1445 23.1179H75.0593V21.8182H73.5199V30ZM84.2958 30L85.2972 27.1129H89.5586L90.5547 30H92.3018L88.3761 19.0909H86.4744L82.5487 30H84.2958ZM85.7766 25.728L87.3853 21.0724H87.4705L89.0792 25.728H85.7766ZM98.9323 26.6069C98.9376 27.9972 97.9042 28.6577 97.0093 28.6577C96.0239 28.6577 95.3421 27.9439 95.3421 26.8306V21.8182H93.7494V27.0224C93.7494 29.0518 94.8627 30.1065 96.434 30.1065C97.6645 30.1065 98.5008 29.4567 98.879 28.5831H98.9642V30H100.53V21.8182H98.9323V26.6069ZM105.733 30.1598C107.225 30.1598 107.811 29.2489 108.098 28.7269H108.231V30H109.787V19.0909H108.194V23.1445H108.098C107.811 22.6385 107.267 21.7116 105.744 21.7116C103.768 21.7116 102.313 23.2724 102.313 25.9251C102.313 28.5724 103.746 30.1598 105.733 30.1598ZM106.085 28.8015C104.662 28.8015 103.922 27.5497 103.922 25.9091C103.922 24.2844 104.646 23.0646 106.085 23.0646C107.475 23.0646 108.221 24.1992 108.221 25.9091C108.221 27.6296 107.459 28.8015 106.085 28.8015ZM112.06 30H113.653V21.8182L112.06 21.8182V30ZM112.864 20.5558C113.413 20.5558 113.871 20.1296 113.871 19.6076C113.871 19.0856 113.413 18.6541 112.864 18.6541C112.31 18.6541 111.858 19.0856 111.858 19.6076C111.858 20.1296 112.31 20.5558 112.864 20.5558ZM119.322 30.1651C121.106 30.1651 122.368 29.2862 122.731 27.9545L121.223 27.6829C120.936 28.4553 120.243 28.8494 119.338 28.8494C117.974 28.8494 117.058 27.9652 117.015 26.3885H122.832V25.8239C122.832 22.8675 121.063 21.7116 119.21 21.7116C116.93 21.7116 115.428 23.4482 115.428 25.9624C115.428 28.5032 116.909 30.1651 119.322 30.1651ZM117.02 25.1953C117.084 24.0341 117.926 23.0273 119.22 23.0273C120.456 23.0273 121.266 23.9435 121.271 25.1953H117.02ZM126.192 25.142C126.192 23.837 126.991 23.0913 128.099 23.0913C129.18 23.0913 129.835 23.7997 129.835 24.9876V30H131.428V24.7958C131.428 22.7717 130.315 21.7116 128.642 21.7116C127.411 21.7116 126.607 22.2816 126.229 23.1499H126.128V21.8182H124.599V30H126.192V25.142ZM137.01 30.1651C138.944 30.1651 140.196 29.0039 140.371 27.4112H138.821C138.619 28.2955 137.932 28.8175 137.021 28.8175C135.673 28.8175 134.805 27.6935 134.805 25.9091C134.805 24.1566 135.689 23.054 137.021 23.054C138.033 23.054 138.651 23.6932 138.821 24.4602H140.371C140.201 22.8089 138.853 21.7116 136.994 21.7116C134.688 21.7116 133.196 23.4482 133.196 25.9464C133.196 28.4126 134.634 30.1651 137.01 30.1651ZM145.601 30.1651C147.385 30.1651 148.648 29.2862 149.01 27.9545L147.502 27.6829C147.215 28.4553 146.522 28.8494 145.617 28.8494C144.253 28.8494 143.337 27.9652 143.294 26.3885H149.111V25.8239C149.111 22.8675 147.343 21.7116 145.489 21.7116C143.209 21.7116 141.707 23.4482 141.707 25.9624C141.707 28.5032 143.188 30.1651 145.601 30.1651ZM143.3 25.1953C143.364 24.0341 144.205 23.0273 145.5 23.0273C146.735 23.0273 147.545 23.9435 147.55 25.1953H143.3Z" fill="#333333"/>
<defs>
<filter id="filter0_d_2_1471" x="0.992112" y="0" width="260.567" height="314.066" filterUnits="userSpaceOnUse" color-interpolation-filters="sRGB">
<feFlood flood-opacity="0" result="BackgroundImageFix"/>
<feColorMatrix in="SourceAlpha" type="matrix" values="0 0 0 0 0 0 0 0 0 0 0 0 0 0 0 0 0 0 127 0" result="hardAlpha"/>
<feMorphology radius="14.7337" operator="erode" in="SourceAlpha" result="effect1_dropShadow_2_1471"/>
<feOffset dy="24.5562"/>
<feGaussianBlur stdDeviation="16.3708"/>
<feColorMatrix type="matrix" values="0 0 0 0 0.583333 0 0 0 0 0.583333 0 0 0 0 0.583333 0 0 0 0.25 0"/>
<feBlend mode="normal" in2="BackgroundImageFix" result="effect1_dropShadow_2_1471"/>
<feBlend mode="normal" in="SourceGraphic" in2="effect1_dropShadow_2_1471" result="shape"/>
</filter>
</defs>
</svg>
