<svg width="101" height="28" viewBox="0 0 101 28" fill="none" xmlns="http://www.w3.org/2000/svg">
<path d="M32.22 10.4H29.2V8H37.96V10.4H34.94V22H32.22V10.4ZM39.1202 22V8H46.3002V10.4H41.8602V13.74H45.8202V16.06H41.8602V19.68H46.3802V22H39.1202ZM51.6134 19.68H55.1334V22H50.0534C49.1734 21.1733 48.5068 20.1267 48.0534 18.86C47.6001 17.5933 47.3734 16.2933 47.3734 14.96C47.3734 13.6133 47.6268 12.32 48.1334 11.08C48.6401 9.84 49.3934 8.81333 50.3934 8H55.1334V10.4H51.6134C51.2534 10.8133 50.9401 11.48 50.6734 12.4C50.4201 13.32 50.2934 14.2 50.2934 15.04C50.2934 15.88 50.4201 16.76 50.6734 17.68C50.9401 18.6 51.2534 19.2667 51.6134 19.68ZM59.3406 22H56.6006V8H59.3406V13.64H62.5406V8H65.2806V22H62.5406V16.2H59.3406V22ZM67.2061 22V8H69.9461V22H67.2061ZM76.7941 22H73.8741V17.34L70.9141 8H73.6341L74.8741 12.26L75.2941 14.72H75.3741L75.7941 12.26L77.0341 8H79.7541L76.7941 17.34V22ZM86.8511 8C87.7844 8.76 88.4778 9.78 88.9311 11.06C89.3844 12.34 89.6111 13.66 89.6111 15.02C89.6111 16.3667 89.3911 17.6467 88.9511 18.86C88.5111 20.0733 87.8111 21.12 86.8511 22H82.7311C81.7711 21.12 81.0711 20.0733 80.6311 18.86C80.1911 17.6467 79.9711 16.3667 79.9711 15.02C79.9711 13.66 80.1978 12.34 80.6511 11.06C81.1044 9.78 81.7978 8.76 82.7311 8H86.8511ZM84.0711 19.68H85.5111C85.8444 19.2933 86.1244 18.6667 86.3511 17.8C86.5911 16.92 86.7111 15.9933 86.7111 15.02C86.7111 14.0467 86.5978 13.1333 86.3711 12.28C86.1444 11.4133 85.8644 10.7867 85.5311 10.4H84.0711C83.7378 10.7867 83.4511 11.4133 83.2111 12.28C82.9844 13.1333 82.8711 14.0467 82.8711 15.02C82.8711 15.9933 82.9844 16.92 83.2111 17.8C83.4511 18.6667 83.7378 19.2933 84.0711 19.68ZM97.4109 22L93.6709 14.26L93.5709 14.3L93.6909 16.66V22H91.1709V8H93.1909L96.8709 16.04L96.9709 16L96.7509 13.54V8H99.2709V22H97.4109Z" fill="white"/>
<rect y="5" width="20" height="20" rx="3" fill="#52BD95"/>
<rect x="5" y="10" width="10" height="10" rx="5" fill="black"/>
<rect x="14" y="7" width="4" height="4" rx="2" fill="black"/>
<rect x="2" y="21" width="2" height="2" rx="1" fill="black"/>
</svg>
