<svg width="149" height="39" viewBox="0 0 149 39" fill="none" xmlns="http://www.w3.org/2000/svg">
<path fill-rule="evenodd" clip-rule="evenodd" d="M13.9323 0.072998C11.8318 0.0745475 10.1318 1.77581 10.1333 3.87218C10.1318 5.96854 11.8333 7.66981 13.9339 7.67136H17.7345V3.87373C17.736 1.77736 16.0344 0.0760969 13.9323 0.072998C13.9339 0.072998 13.9339 0.072998 13.9323 0.072998V0.072998ZM13.9323 10.2062H3.80058C1.70001 10.2078 -0.00154828 11.909 4.24285e-06 14.0054C-0.0031008 16.1018 1.69846 17.803 3.79902 17.8061H13.9323C16.0329 17.8046 17.7345 16.1033 17.7329 14.0069C17.7345 11.909 16.0329 10.2078 13.9323 10.2062Z" fill="#ABABAB"/>
<path fill-rule="evenodd" clip-rule="evenodd" d="M37.9994 14.0053C38.001 11.9089 36.2994 10.2076 34.1989 10.2061C32.0983 10.2076 30.3967 11.9089 30.3983 14.0053V17.806H34.1989C36.2994 17.8044 38.001 16.1032 37.9994 14.0053ZM27.8661 14.0053V3.87205C27.8677 1.77724 26.1677 0.0759748 24.0671 0.072876C21.9665 0.0744254 20.265 1.77569 20.2665 3.87205V14.0053C20.2634 16.1016 21.965 17.8029 24.0655 17.806C26.1661 17.8044 27.8677 16.1032 27.8661 14.0053Z" fill="#ABABAB"/>
<path fill-rule="evenodd" clip-rule="evenodd" d="M24.0655 38.0723C26.1661 38.0708 27.8677 36.3695 27.8661 34.2731C27.8677 32.1768 26.1661 30.4755 24.0655 30.474H20.265V34.2731C20.2634 36.368 21.965 38.0692 24.0655 38.0723ZM24.0655 27.9376H34.1988C36.2994 27.936 38.001 26.2347 37.9994 24.1384C38.0025 22.042 36.3009 20.3407 34.2004 20.3376H24.0671C21.9665 20.3392 20.265 22.0405 20.2665 24.1368C20.265 26.2347 21.965 27.936 24.0655 27.9376Z" fill="#ABABAB"/>
<path fill-rule="evenodd" clip-rule="evenodd" d="M0.000336755 24.1384C-0.00121577 26.2348 1.70035 27.936 3.80091 27.9376C5.90147 27.936 7.60303 26.2348 7.60148 24.1384V20.3392H3.80091C1.70035 20.3408 -0.00121577 22.042 0.000336755 24.1384ZM10.1336 24.1384V34.2716C10.1305 36.368 11.8321 38.0693 13.9327 38.0724C16.0332 38.0708 17.7348 36.3695 17.7332 34.2732V24.1415C17.7363 22.0451 16.0348 20.3439 13.9342 20.3408C11.8321 20.3408 10.1321 22.042 10.1336 24.1384C10.1336 24.1384 10.1336 24.14 10.1336 24.1384Z" fill="#ABABAB"/>
<path d="M49.1623 27.5896L52.7644 25.4917C54.3477 27.8139 56.4061 28.975 58.9394 28.975C60.1797 28.975 61.1561 28.7375 61.8686 28.2625C62.6074 27.7611 62.9769 27.1014 62.9769 26.2833C62.9769 25.6236 62.6734 25.0431 62.0665 24.5417C61.4859 24.0403 60.8658 23.6708 60.2061 23.4333C59.5463 23.1695 58.5568 22.8264 57.2373 22.4042C56.9998 22.325 56.8283 22.2722 56.7227 22.2458C55.7727 21.9292 54.9679 21.6257 54.3082 21.3354C53.6748 21.0188 53.0019 20.6097 52.2894 20.1084C51.5769 19.5806 51.0359 18.934 50.6665 18.1688C50.2971 17.3771 50.1123 16.4667 50.1123 15.4375C50.1123 13.432 50.9568 11.8223 52.6457 10.6084C54.3345 9.39449 56.4325 8.78754 58.9394 8.78754C60.813 8.78754 62.5811 9.28893 64.2435 10.2917C65.906 11.2681 67.1463 12.5216 67.9644 14.0521L64.6394 16.0709C63.0824 13.9334 61.1956 12.8646 58.979 12.8646C57.7651 12.8646 56.8283 13.1153 56.1686 13.6167C55.5352 14.0917 55.2186 14.725 55.2186 15.5167C55.2186 16.1764 55.4957 16.7702 56.0498 17.2979C56.6304 17.7993 57.2241 18.1688 57.8311 18.4063C58.438 18.6438 59.2956 18.9472 60.404 19.3167C60.6943 19.3959 60.9054 19.4618 61.0373 19.5146C65.7345 21.0188 68.0831 23.2882 68.0831 26.3229C68.0831 28.1965 67.2915 29.7931 65.7081 31.1125C64.1512 32.4055 61.9345 33.0521 59.0581 33.0521C56.8415 33.0521 54.8623 32.5639 53.1207 31.5875C51.4054 30.6111 50.0859 29.2785 49.1623 27.5896Z" fill="#ABABAB"/>
<path d="M72.4373 32.3396V6.10352e-05H77.4248V32.3396H72.4373Z" fill="#ABABAB"/>
<path d="M87.0039 25.9271C87.0039 26.7715 87.3338 27.484 87.9935 28.0646C88.6796 28.6187 89.5768 28.8958 90.6852 28.8958C92.2685 28.8958 93.6143 28.3681 94.7226 27.3125C95.8574 26.257 96.4247 24.8715 96.4247 23.1563V21.0584C95.2108 21.3486 93.7463 21.6257 92.031 21.8896C88.6796 22.4174 87.0039 23.7632 87.0039 25.9271ZM81.9373 26.3625C81.9373 22.0611 85.1303 19.4354 91.5164 18.4854C93.8386 18.1424 95.4747 17.8257 96.4247 17.5354V16.3084C96.4247 15.2 96.0289 14.3292 95.2372 13.6959C94.4456 13.0625 93.39 12.7459 92.0706 12.7459C89.5636 12.7459 87.3997 13.775 85.5789 15.8334L82.531 13.2209C83.7185 11.8223 85.1303 10.7403 86.7664 9.97504C88.4289 9.18338 90.1706 8.78754 91.9914 8.78754C95.3956 8.78754 97.8233 9.61879 99.2747 11.2813C100.726 12.9174 101.452 15.2132 101.452 18.1688V32.3396H96.5831V29.4896C96.1081 30.466 95.2768 31.3104 94.0893 32.0229C92.9282 32.709 91.556 33.0521 89.9727 33.0521C87.4657 33.0521 85.4998 32.4319 84.0748 31.1917C82.6498 29.9514 81.9373 28.3417 81.9373 26.3625Z" fill="#ABABAB"/>
<path d="M105.291 20.9396C105.291 17.2716 106.268 14.3292 108.221 12.1125C110.2 9.89587 112.746 8.78754 115.86 8.78754C118.13 8.78754 120.043 9.47365 121.6 10.8459C123.157 12.2181 124.133 13.7882 124.529 15.5563L120.254 16.7438C119.937 15.741 119.396 14.8834 118.631 14.1709C117.866 13.432 116.955 13.0625 115.9 13.0625C114.184 13.0625 112.839 13.8146 111.862 15.3188C110.912 16.8229 110.437 18.6965 110.437 20.9396C110.437 23.4202 110.952 25.3465 111.981 26.7188C113.01 28.091 114.316 28.7771 115.9 28.7771C117.061 28.7771 118.077 28.3813 118.948 27.5896C119.845 26.7715 120.465 25.8479 120.808 24.8188L125.083 26.0458C124.582 27.8931 123.486 29.5292 121.798 30.9542C120.109 32.3528 118.13 33.0521 115.86 33.0521C112.746 33.0521 110.2 31.9569 108.221 29.7667C106.268 27.55 105.291 24.6076 105.291 20.9396Z" fill="#ABABAB"/>
<path d="M128.843 32.3396V6.10352e-05H133.831V18.6042L141.945 9.50004H148.239L139.808 18.8021L148.754 32.3396H142.895L136.562 22.325L133.831 25.3333V32.3396H128.843Z" fill="#ABABAB"/>
</svg>
